<svg xmlns="http://www.w3.org/2000/svg" xmlns:xlink="http://www.w3.org/1999/xlink" version="1.1" width="256" height="256" viewBox="0 0 256 256" xml:space="preserve">

<defs>
</defs>
  <g style="stroke: none; stroke-width: 0; stroke-dasharray: none; stroke-linecap: butt; stroke-linejoin: miter; stroke-miterlimit: 10; fill: none; fill-rule: nonzero; opacity: 1;" transform="translate(1.4065934065934016 1.4065934065934016) scale(2.81 2.81)">
	<path d="M 19.309 0 C 15.04 0 11.58 3.46 11.58 7.729 v 47.153 v 27.389 c 0 4.269 3.46 7.729 7.729 7.729 h 51.382 c 4.269 0 7.729 -3.46 7.729 -7.729 V 54.882 V 25.82 L 52.601 0 H 19.309 z" style="stroke: none; stroke-width: 1; stroke-dasharray: none; stroke-linecap: butt; stroke-linejoin: miter; stroke-miterlimit: 10; fill: rgb(82,129,160); fill-rule: nonzero; opacity: 1;" transform=" matrix(1 0 0 1 0 0) " stroke-linecap="round"/>
    <path d="M 78.42 25.82 H 60.159 c -4.175 0 -7.559 -3.384 -7.559 -7.559 V 0 L 78.42 25.82 z" style="stroke: none; stroke-width: 1; stroke-dasharray: none; stroke-linecap: butt; stroke-linejoin: miter; stroke-miterlimit: 10; fill: rgb(113,161,188); fill-rule: nonzero; opacity: 1;" transform=" matrix(1 0 0 1 0 0) " stroke-linecap="round"/>
    <path
      d="M 64.277 66.043 h -4.993 c -0.967 0 -1.75 -0.783 -1.75 -1.75 s 0.783 -1.75 1.75 -1.75 h 4.993 c 0.536 0 0.973 -0.437 0.973 -0.974 v -1.847 c 0 -0.536 -0.437 -0.973 -0.973 -0.973 h -2.271 c -2.466 0 -4.473 -2.007 -4.473 -4.473 v -1.847 c 0 -2.467 2.007 -4.474 4.473 -4.474 h 3.217 c 0.967 0 1.75 0.783 1.75 1.75 s -0.783 1.75 -1.75 1.75 h -3.217 c -0.536 0 -0.973 0.437 -0.973 0.974 v 1.847 c 0 0.536 0.437 0.973 0.973 0.973 h 2.271 c 2.466 0 4.473 2.007 4.473 4.473 v 1.847 C 68.75 64.036 66.743 66.043 64.277 66.043 z"
      style="stroke: none; stroke-width: 1; stroke-dasharray: none; stroke-linecap: butt; stroke-linejoin: miter; stroke-miterlimit: 10; fill: rgb(255,255,255); fill-rule: nonzero; opacity: 1;" transform=" matrix(1 0 0 1 0 0) " stroke-linecap="round"/>
    <path d="M 36.701 66.043 c -0.657 0 -1.287 -0.372 -1.585 -1.006 L 29.85 53.824 l -5.266 11.213 c -0.411 0.875 -1.452 1.253 -2.328 0.84 c -0.875 -0.411 -1.25 -1.453 -0.84 -2.328 l 6.85 -14.586 c 0.289 -0.614 0.906 -1.006 1.584 -1.006 s 1.295 0.392 1.584 1.006 l 6.85 14.586 c 0.411 0.875 0.035 1.917 -0.84 2.328 C 37.204 65.99 36.951 66.043 36.701 66.043 z"
          style="stroke: none; stroke-width: 1; stroke-dasharray: none; stroke-linecap: butt; stroke-linejoin: miter; stroke-miterlimit: 10; fill: rgb(255,255,255); fill-rule: nonzero; opacity: 1;" transform=" matrix(1 0 0 1 0 0) " stroke-linecap="round"/>
    <path d="M 34.523 61.684 h -9.347 c -0.966 0 -1.75 -0.783 -1.75 -1.75 s 0.784 -1.75 1.75 -1.75 h 9.347 c 0.966 0 1.75 0.783 1.75 1.75 S 35.49 61.684 34.523 61.684 z" style="stroke: none; stroke-width: 1; stroke-dasharray: none; stroke-linecap: butt; stroke-linejoin: miter; stroke-miterlimit: 10; fill: rgb(255,255,255); fill-rule: nonzero; opacity: 1;" transform=" matrix(1 0 0 1 0 0) " stroke-linecap="round"/>
    <path d="M 46.686 66.043 h -3.18 c -0.966 0 -1.75 -0.783 -1.75 -1.75 V 49.707 c 0 -0.967 0.784 -1.75 1.75 -1.75 h 3.18 c 4.018 0 7.286 3.269 7.286 7.287 v 3.512 C 53.972 62.774 50.703 66.043 46.686 66.043 z M 45.256 62.543 h 1.43 c 2.088 0 3.786 -1.699 3.786 -3.787 v -3.512 c 0 -2.088 -1.698 -3.787 -3.786 -3.787 h -1.43 V 62.543 z"
          style="stroke: none; stroke-width: 1; stroke-dasharray: none; stroke-linecap: butt; stroke-linejoin: miter; stroke-miterlimit: 10; fill: rgb(255,255,255); fill-rule: nonzero; opacity: 1;" transform=" matrix(1 0 0 1 0 0) " stroke-linecap="round"/>
</g>
</svg>
