<svg xmlns="http://www.w3.org/2000/svg" xmlns:xlink="http://www.w3.org/1999/xlink" version="1.1" width="256" height="256" viewBox="0 0 256 256" xml:space="preserve">

<defs>
</defs>
  <g style="stroke: none; stroke-width: 0; stroke-dasharray: none; stroke-linecap: butt; stroke-linejoin: miter; stroke-miterlimit: 10; fill: none; fill-rule: nonzero; opacity: 1;" transform="translate(1.4065934065934016 1.4065934065934016) scale(2.81 2.81)">
	<path d="M 19.309 0 C 15.04 0 11.58 3.46 11.58 7.729 v 47.153 v 27.389 c 0 4.269 3.46 7.729 7.729 7.729 h 51.382 c 4.269 0 7.729 -3.46 7.729 -7.729 V 54.882 V 25.82 L 52.601 0 H 19.309 z" style="stroke: none; stroke-width: 1; stroke-dasharray: none; stroke-linecap: butt; stroke-linejoin: miter; stroke-miterlimit: 10; fill: rgb(0,139,245); fill-rule: nonzero; opacity: 1;" transform=" matrix(1 0 0 1 0 0) " stroke-linecap="round"/>
    <path d="M 78.42 25.82 H 60.159 c -4.175 0 -7.559 -3.384 -7.559 -7.559 V 0 L 78.42 25.82 z" style="stroke: none; stroke-width: 1; stroke-dasharray: none; stroke-linecap: butt; stroke-linejoin: miter; stroke-miterlimit: 10; fill: rgb(77,174,248); fill-rule: nonzero; opacity: 1;" transform=" matrix(1 0 0 1 0 0) " stroke-linecap="round"/>
    <path d="M 47.985 63.128 h -3.953 c -0.966 0 -1.75 -0.783 -1.75 -1.75 v -8.743 c 0 -0.967 0.784 -1.75 1.75 -1.75 h 3.953 c 3.082 0 5.59 2.508 5.59 5.59 v 1.063 C 53.575 60.62 51.067 63.128 47.985 63.128 z M 45.783 59.628 h 2.203 c 1.152 0 2.09 -0.938 2.09 -2.09 v -1.063 c 0 -1.152 -0.938 -2.09 -2.09 -2.09 h -2.203 V 59.628 z"
          style="stroke: none; stroke-width: 1; stroke-dasharray: none; stroke-linecap: butt; stroke-linejoin: miter; stroke-miterlimit: 10; fill: rgb(255,255,255); fill-rule: nonzero; opacity: 1;" transform=" matrix(1 0 0 1 0 0) " stroke-linecap="round"/>
    <path d="M 44.033 69.115 c -0.966 0 -1.75 -0.783 -1.75 -1.75 v -5.987 c 0 -0.967 0.784 -1.75 1.75 -1.75 s 1.75 0.783 1.75 1.75 v 5.987 C 45.783 68.332 44.999 69.115 44.033 69.115 z" style="stroke: none; stroke-width: 1; stroke-dasharray: none; stroke-linecap: butt; stroke-linejoin: miter; stroke-miterlimit: 10; fill: rgb(255,255,255); fill-rule: nonzero; opacity: 1;" transform=" matrix(1 0 0 1 0 0) " stroke-linecap="round"/>
    <path d="M 22.499 69.115 c -0.25 0 -0.502 -0.053 -0.743 -0.166 c -0.875 -0.411 -1.25 -1.453 -0.84 -2.328 l 6.918 -14.73 c 0.289 -0.614 0.906 -1.006 1.584 -1.006 s 1.295 0.392 1.584 1.006 l 6.918 14.73 c 0.411 0.875 0.035 1.917 -0.84 2.328 c -0.875 0.412 -1.917 0.035 -2.328 -0.84 l -5.334 -11.358 l -5.334 11.358 C 23.786 68.743 23.156 69.115 22.499 69.115 z"
          style="stroke: none; stroke-width: 1; stroke-dasharray: none; stroke-linecap: butt; stroke-linejoin: miter; stroke-miterlimit: 10; fill: rgb(255,255,255); fill-rule: nonzero; opacity: 1;" transform=" matrix(1 0 0 1 0 0) " stroke-linecap="round"/>
    <path d="M 34.138 64.434 h -9.439 c -0.966 0 -1.75 -0.783 -1.75 -1.75 s 0.784 -1.75 1.75 -1.75 h 9.439 c 0.966 0 1.75 0.783 1.75 1.75 S 35.104 64.434 34.138 64.434 z" style="stroke: none; stroke-width: 1; stroke-dasharray: none; stroke-linecap: butt; stroke-linejoin: miter; stroke-miterlimit: 10; fill: rgb(255,255,255); fill-rule: nonzero; opacity: 1;" transform=" matrix(1 0 0 1 0 0) " stroke-linecap="round"/>
    <path d="M 59.135 69.115 c -0.967 0 -1.75 -0.783 -1.75 -1.75 v -14.73 c 0 -0.967 0.783 -1.75 1.75 -1.75 s 1.75 0.783 1.75 1.75 v 14.73 C 60.885 68.332 60.102 69.115 59.135 69.115 z" style="stroke: none; stroke-width: 1; stroke-dasharray: none; stroke-linecap: butt; stroke-linejoin: miter; stroke-miterlimit: 10; fill: rgb(255,255,255); fill-rule: nonzero; opacity: 1;" transform=" matrix(1 0 0 1 0 0) " stroke-linecap="round"/>
    <path d="M 59.136 61.75 c -0.485 0 -0.969 -0.2 -1.314 -0.594 c -0.639 -0.726 -0.568 -1.831 0.157 -2.47 l 8.365 -7.365 c 0.726 -0.64 1.832 -0.569 2.47 0.157 c 0.639 0.726 0.568 1.831 -0.157 2.47 l -8.365 7.365 C 59.959 61.606 59.546 61.75 59.136 61.75 z" style="stroke: none; stroke-width: 1; stroke-dasharray: none; stroke-linecap: butt; stroke-linejoin: miter; stroke-miterlimit: 10; fill: rgb(255,255,255); fill-rule: nonzero; opacity: 1;" transform=" matrix(1 0 0 1 0 0) "
          stroke-linecap="round"/>
    <path d="M 67.499 69.115 c -0.41 0 -0.823 -0.144 -1.155 -0.437 l -8.365 -7.365 c -0.726 -0.639 -0.796 -1.744 -0.157 -2.47 c 0.638 -0.724 1.744 -0.797 2.47 -0.157 l 8.365 7.365 c 0.726 0.639 0.796 1.744 0.157 2.47 C 68.468 68.914 67.984 69.115 67.499 69.115 z" style="stroke: none; stroke-width: 1; stroke-dasharray: none; stroke-linecap: butt; stroke-linejoin: miter; stroke-miterlimit: 10; fill: rgb(255,255,255); fill-rule: nonzero; opacity: 1;" transform=" matrix(1 0 0 1 0 0) "
          stroke-linecap="round"/>
</g>
</svg>
