<svg xmlns="http://www.w3.org/2000/svg" xmlns:xlink="http://www.w3.org/1999/xlink" version="1.1" width="256" height="256" viewBox="0 0 256 256" xml:space="preserve">

<defs>
</defs>
  <g style="stroke: none; stroke-width: 0; stroke-dasharray: none; stroke-linecap: butt; stroke-linejoin: miter; stroke-miterlimit: 10; fill: none; fill-rule: nonzero; opacity: 1;" transform="translate(1.4065934065934016 1.4065934065934016) scale(2.81 2.81)">
	<path d="M 19.309 0 C 15.04 0 11.58 3.46 11.58 7.729 v 47.153 v 27.389 c 0 4.269 3.46 7.729 7.729 7.729 h 51.382 c 4.269 0 7.729 -3.46 7.729 -7.729 V 54.882 V 25.82 L 52.601 0 H 19.309 z" style="stroke: none; stroke-width: 1; stroke-dasharray: none; stroke-linecap: butt; stroke-linejoin: miter; stroke-miterlimit: 10; fill: rgb(249,172,28); fill-rule: nonzero; opacity: 1;" transform=" matrix(1 0 0 1 0 0) " stroke-linecap="round"/>
    <path d="M 78.42 25.82 H 60.159 c -4.175 0 -7.559 -3.384 -7.559 -7.559 V 0 L 78.42 25.82 z" style="stroke: none; stroke-width: 1; stroke-dasharray: none; stroke-linecap: butt; stroke-linejoin: miter; stroke-miterlimit: 10; fill: rgb(255,199,94); fill-rule: nonzero; opacity: 1;" transform=" matrix(1 0 0 1 0 0) " stroke-linecap="round"/>
    <path d="M 50.91 67.52 c -0.967 0 -1.75 -0.783 -1.75 -1.75 V 55.294 l -2.562 3.265 c -0.664 0.846 -2.09 0.846 -2.753 0 l -2.563 -3.265 V 65.77 c 0 0.967 -0.784 1.75 -1.75 1.75 s -1.75 -0.783 -1.75 -1.75 V 50.23 c 0 -0.746 0.473 -1.41 1.178 -1.654 c 0.706 -0.242 1.487 -0.013 1.948 0.574 l 4.313 5.494 l 4.312 -5.494 c 0.462 -0.588 1.246 -0.815 1.948 -0.574 c 0.706 0.244 1.179 0.908 1.179 1.654 V 65.77 C 52.66 66.736 51.877 67.52 50.91 67.52 z"
          style="stroke: none; stroke-width: 1; stroke-dasharray: none; stroke-linecap: butt; stroke-linejoin: miter; stroke-miterlimit: 10; fill: rgb(255,255,255); fill-rule: nonzero; opacity: 1;" transform=" matrix(1 0 0 1 0 0) " stroke-linecap="round"/>
    <path d="M 64.162 61.203 h -5.383 c -0.967 0 -1.75 -0.783 -1.75 -1.75 V 50.23 c 0 -0.967 0.783 -1.75 1.75 -1.75 h 5.383 c 2.529 0 4.588 2.059 4.588 4.589 v 3.546 C 68.75 59.145 66.691 61.203 64.162 61.203 z M 60.529 57.703 h 3.633 c 0.6 0 1.088 -0.488 1.088 -1.088 v -3.546 c 0 -0.601 -0.488 -1.089 -1.088 -1.089 h -3.633 V 57.703 z"
          style="stroke: none; stroke-width: 1; stroke-dasharray: none; stroke-linecap: butt; stroke-linejoin: miter; stroke-miterlimit: 10; fill: rgb(255,255,255); fill-rule: nonzero; opacity: 1;" transform=" matrix(1 0 0 1 0 0) " stroke-linecap="round"/>
    <path d="M 58.779 67.52 c -0.967 0 -1.75 -0.783 -1.75 -1.75 v -6.316 c 0 -0.967 0.783 -1.75 1.75 -1.75 s 1.75 0.783 1.75 1.75 v 6.316 C 60.529 66.736 59.746 67.52 58.779 67.52 z" style="stroke: none; stroke-width: 1; stroke-dasharray: none; stroke-linecap: butt; stroke-linejoin: miter; stroke-miterlimit: 10; fill: rgb(255,255,255); fill-rule: nonzero; opacity: 1;" transform=" matrix(1 0 0 1 0 0) " stroke-linecap="round"/>
    <path d="M 28.058 59.75 H 23 c -0.966 0 -1.75 -0.783 -1.75 -1.75 v -7.77 c 0 -0.967 0.784 -1.75 1.75 -1.75 h 5.058 c 2.53 0 4.588 2.059 4.588 4.589 v 2.093 C 32.646 57.691 30.588 59.75 28.058 59.75 z M 24.75 56.25 h 3.308 c 0.6 0 1.088 -0.488 1.088 -1.088 v -2.093 c 0 -0.601 -0.488 -1.089 -1.088 -1.089 H 24.75 V 56.25 z"
          style="stroke: none; stroke-width: 1; stroke-dasharray: none; stroke-linecap: butt; stroke-linejoin: miter; stroke-miterlimit: 10; fill: rgb(255,255,255); fill-rule: nonzero; opacity: 1;" transform=" matrix(1 0 0 1 0 0) " stroke-linecap="round"/>
    <path d="M 28.058 67.52 H 23 c -0.966 0 -1.75 -0.783 -1.75 -1.75 V 58 c 0 -0.967 0.784 -1.75 1.75 -1.75 h 5.058 c 2.53 0 4.588 2.059 4.588 4.588 v 2.093 C 32.646 65.461 30.588 67.52 28.058 67.52 z M 24.75 64.02 h 3.308 c 0.6 0 1.088 -0.488 1.088 -1.089 v -2.093 c 0 -0.6 -0.488 -1.088 -1.088 -1.088 H 24.75 V 64.02 z"
          style="stroke: none; stroke-width: 1; stroke-dasharray: none; stroke-linecap: butt; stroke-linejoin: miter; stroke-miterlimit: 10; fill: rgb(255,255,255); fill-rule: nonzero; opacity: 1;" transform=" matrix(1 0 0 1 0 0) " stroke-linecap="round"/>
</g>
</svg>
