<svg xmlns="http://www.w3.org/2000/svg" xmlns:xlink="http://www.w3.org/1999/xlink" version="1.1" width="256" height="256" viewBox="0 0 256 256" xml:space="preserve">

<defs>
</defs>
  <g style="stroke: none; stroke-width: 0; stroke-dasharray: none; stroke-linecap: butt; stroke-linejoin: miter; stroke-miterlimit: 10; fill: none; fill-rule: nonzero; opacity: 1;" transform="translate(1.4065934065934016 1.4065934065934016) scale(2.81 2.81)">
	<path d="M 19.309 0 C 15.04 0 11.58 3.46 11.58 7.729 v 47.153 v 27.389 c 0 4.269 3.46 7.729 7.729 7.729 h 51.382 c 4.269 0 7.729 -3.46 7.729 -7.729 V 54.882 V 25.82 L 52.601 0 H 19.309 z" style="stroke: none; stroke-width: 1; stroke-dasharray: none; stroke-linecap: butt; stroke-linejoin: miter; stroke-miterlimit: 10; fill: rgb(94,162,6); fill-rule: nonzero; opacity: 1;" transform=" matrix(1 0 0 1 0 0) " stroke-linecap="round"/>
    <path d="M 78.42 25.82 H 60.159 c -4.175 0 -7.559 -3.384 -7.559 -7.559 V 0 L 78.42 25.82 z" style="stroke: none; stroke-width: 1; stroke-dasharray: none; stroke-linecap: butt; stroke-linejoin: miter; stroke-miterlimit: 10; fill: rgb(124,191,29); fill-rule: nonzero; opacity: 1;" transform=" matrix(1 0 0 1 0 0) " stroke-linecap="round"/>
    <path d="M 44.313 65.479 h -4.804 c -0.966 0 -1.75 -0.783 -1.75 -1.75 V 46.426 c 0 -0.966 0.784 -1.75 1.75 -1.75 h 4.804 c 4.018 0 7.287 3.269 7.287 7.287 v 6.229 C 51.6 62.21 48.331 65.479 44.313 65.479 z M 41.259 61.979 h 3.054 c 2.088 0 3.787 -1.698 3.787 -3.786 v -6.229 c 0 -2.088 -1.698 -3.787 -3.787 -3.787 h -3.054 V 61.979 z"
          style="stroke: none; stroke-width: 1; stroke-dasharray: none; stroke-linecap: butt; stroke-linejoin: miter; stroke-miterlimit: 10; fill: rgb(255,255,255); fill-rule: nonzero; opacity: 1;" transform=" matrix(1 0 0 1 0 0) " stroke-linecap="round"/>
    <path d="M 30.315 65.479 h -2.9 c -3.845 0 -6.974 -3.128 -6.974 -6.973 v -6.856 c 0 -3.846 3.128 -6.974 6.974 -6.974 h 2.9 c 0.966 0 1.75 0.784 1.75 1.75 c 0 0.967 -0.784 1.75 -1.75 1.75 h -2.9 c -1.916 0 -3.474 1.559 -3.474 3.474 v 6.856 c 0 1.915 1.558 3.473 3.474 3.473 h 2.9 c 0.966 0 1.75 0.783 1.75 1.75 S 31.281 65.479 30.315 65.479 z"
          style="stroke: none; stroke-width: 1; stroke-dasharray: none; stroke-linecap: butt; stroke-linejoin: miter; stroke-miterlimit: 10; fill: rgb(255,255,255); fill-rule: nonzero; opacity: 1;" transform=" matrix(1 0 0 1 0 0) " stroke-linecap="round"/>
    <path d="M 64.971 58.446 h -6.315 c -0.967 0 -1.75 -0.783 -1.75 -1.75 V 46.426 c 0 -0.966 0.783 -1.75 1.75 -1.75 h 6.315 c 2.529 0 4.588 2.059 4.588 4.589 v 4.593 C 69.559 56.388 67.5 58.446 64.971 58.446 z M 60.405 54.946 h 4.565 c 0.6 0 1.088 -0.488 1.088 -1.089 v -4.593 c 0 -0.601 -0.488 -1.089 -1.088 -1.089 h -4.565 V 54.946 z"
          style="stroke: none; stroke-width: 1; stroke-dasharray: none; stroke-linecap: butt; stroke-linejoin: miter; stroke-miterlimit: 10; fill: rgb(255,255,255); fill-rule: nonzero; opacity: 1;" transform=" matrix(1 0 0 1 0 0) " stroke-linecap="round"/>
    <path d="M 58.655 65.479 c -0.967 0 -1.75 -0.783 -1.75 -1.75 v -7.032 c 0 -0.967 0.783 -1.75 1.75 -1.75 s 1.75 0.783 1.75 1.75 v 7.032 C 60.405 64.695 59.622 65.479 58.655 65.479 z" style="stroke: none; stroke-width: 1; stroke-dasharray: none; stroke-linecap: butt; stroke-linejoin: miter; stroke-miterlimit: 10; fill: rgb(255,255,255); fill-rule: nonzero; opacity: 1;" transform=" matrix(1 0 0 1 0 0) " stroke-linecap="round"/>
    <path d="M 67.81 65.479 c -0.675 0 -1.317 -0.392 -1.604 -1.05 l -3.069 -7.032 c -0.387 -0.886 0.018 -1.917 0.903 -2.304 c 0.889 -0.387 1.918 0.018 2.304 0.903 l 3.069 7.032 c 0.387 0.886 -0.018 1.917 -0.903 2.304 C 68.28 65.432 68.043 65.479 67.81 65.479 z" style="stroke: none; stroke-width: 1; stroke-dasharray: none; stroke-linecap: butt; stroke-linejoin: miter; stroke-miterlimit: 10; fill: rgb(255,255,255); fill-rule: nonzero; opacity: 1;" transform=" matrix(1 0 0 1 0 0) "
          stroke-linecap="round"/>
</g>
</svg>
