<svg xmlns="http://www.w3.org/2000/svg" xmlns:xlink="http://www.w3.org/1999/xlink" version="1.1" width="256" height="256" viewBox="0 0 256 256" xml:space="preserve">

<defs>
</defs>
  <g style="stroke: none; stroke-width: 0; stroke-dasharray: none; stroke-linecap: butt; stroke-linejoin: miter; stroke-miterlimit: 10; fill: none; fill-rule: nonzero; opacity: 1;" transform="translate(1.4065934065934016 1.4065934065934016) scale(2.81 2.81)">
	<path d="M 19.309 0 C 15.04 0 11.58 3.46 11.58 7.729 v 47.153 v 27.389 c 0 4.269 3.46 7.729 7.729 7.729 h 51.382 c 4.269 0 7.729 -3.46 7.729 -7.729 V 54.882 V 25.82 L 52.601 0 H 19.309 z" style="stroke: none; stroke-width: 1; stroke-dasharray: none; stroke-linecap: butt; stroke-linejoin: miter; stroke-miterlimit: 10; fill: rgb(117,66,237); fill-rule: nonzero; opacity: 1;" transform=" matrix(1 0 0 1 0 0) " stroke-linecap="round"/>
    <path d="M 78.42 25.82 H 60.159 c -4.175 0 -7.559 -3.384 -7.559 -7.559 V 0 L 78.42 25.82 z" style="stroke: none; stroke-width: 1; stroke-dasharray: none; stroke-linecap: butt; stroke-linejoin: miter; stroke-miterlimit: 10; fill: rgb(136,99,252); fill-rule: nonzero; opacity: 1;" transform=" matrix(1 0 0 1 0 0) " stroke-linecap="round"/>
    <path d="M 34.202 69.883 c -0.448 0 -0.896 -0.171 -1.237 -0.513 l -8.5 -8.5 c -0.684 -0.684 -0.684 -1.791 0 -2.475 l 8.5 -8.5 c 0.684 -0.684 1.791 -0.684 2.475 0 s 0.684 1.791 0 2.475 l -7.262 7.263 l 7.262 7.263 c 0.684 0.684 0.684 1.791 0 2.475 C 35.098 69.712 34.65 69.883 34.202 69.883 z" style="stroke: none; stroke-width: 1; stroke-dasharray: none; stroke-linecap: butt; stroke-linejoin: miter; stroke-miterlimit: 10; fill: rgb(255,255,255); fill-rule: nonzero; opacity: 1;"
          transform=" matrix(1 0 0 1 0 0) " stroke-linecap="round"/>
    <path d="M 55.798 69.883 c -0.448 0 -0.896 -0.171 -1.237 -0.513 c -0.684 -0.684 -0.684 -1.791 0 -2.475 l 7.263 -7.263 l -7.263 -7.263 c -0.684 -0.684 -0.684 -1.791 0 -2.475 s 1.791 -0.684 2.475 0 l 8.5 8.5 c 0.684 0.684 0.684 1.791 0 2.475 l -8.5 8.5 C 56.693 69.712 56.246 69.883 55.798 69.883 z" style="stroke: none; stroke-width: 1; stroke-dasharray: none; stroke-linecap: butt; stroke-linejoin: miter; stroke-miterlimit: 10; fill: rgb(255,255,255); fill-rule: nonzero; opacity: 1;"
          transform=" matrix(1 0 0 1 0 0) " stroke-linecap="round"/>
    <path d="M 41.456 73.883 c -0.156 0 -0.314 -0.021 -0.471 -0.064 c -0.931 -0.26 -1.475 -1.225 -1.215 -2.156 l 6.975 -25 c 0.259 -0.93 1.218 -1.478 2.156 -1.215 c 0.931 0.26 1.475 1.225 1.215 2.156 l -6.975 25 C 42.925 73.377 42.222 73.883 41.456 73.883 z" style="stroke: none; stroke-width: 1; stroke-dasharray: none; stroke-linecap: butt; stroke-linejoin: miter; stroke-miterlimit: 10; fill: rgb(255,255,255); fill-rule: nonzero; opacity: 1;" transform=" matrix(1 0 0 1 0 0) "
          stroke-linecap="round"/>
</g>
</svg>
