<svg xmlns="http://www.w3.org/2000/svg" xmlns:xlink="http://www.w3.org/1999/xlink" version="1.1" width="256" height="256" viewBox="0 0 256 256" xml:space="preserve">

<defs>
</defs>
  <g style="stroke: none; stroke-width: 0; stroke-dasharray: none; stroke-linecap: butt; stroke-linejoin: miter; stroke-miterlimit: 10; fill: none; fill-rule: nonzero; opacity: 1;" transform="translate(1.4065934065934016 1.4065934065934016) scale(2.81 2.81)">
	<path d="M 19.309 0 C 15.04 0 11.58 3.46 11.58 7.729 v 47.153 v 27.389 c 0 4.269 3.46 7.729 7.729 7.729 h 51.382 c 4.269 0 7.729 -3.46 7.729 -7.729 V 54.882 V 25.82 L 52.601 0 H 19.309 z" style="stroke: none; stroke-width: 1; stroke-dasharray: none; stroke-linecap: butt; stroke-linejoin: miter; stroke-miterlimit: 10; fill: rgb(58,58,58); fill-rule: nonzero; opacity: 1;" transform=" matrix(1 0 0 1 0 0) " stroke-linecap="round"/>
    <path d="M 78.42 25.82 H 60.159 c -4.175 0 -7.559 -3.384 -7.559 -7.559 V 0 L 78.42 25.82 z" style="stroke: none; stroke-width: 1; stroke-dasharray: none; stroke-linecap: butt; stroke-linejoin: miter; stroke-miterlimit: 10; fill: rgb(99,99,99); fill-rule: nonzero; opacity: 1;" transform=" matrix(1 0 0 1 0 0) " stroke-linecap="round"/>
    <path d="M 32.505 64.584 H 29.36 c -4.073 0 -7.387 -3.313 -7.387 -7.387 V 51.87 c 0 -4.073 3.314 -7.387 7.387 -7.387 h 3.145 c 0.966 0 1.75 0.784 1.75 1.75 c 0 0.967 -0.784 1.75 -1.75 1.75 H 29.36 c -2.144 0 -3.887 1.743 -3.887 3.887 v 5.327 c 0 2.144 1.744 3.887 3.887 3.887 h 3.145 c 0.966 0 1.75 0.783 1.75 1.75 S 33.471 64.584 32.505 64.584 z"
          style="stroke: none; stroke-width: 1; stroke-dasharray: none; stroke-linecap: butt; stroke-linejoin: miter; stroke-miterlimit: 10; fill: rgb(255,255,255); fill-rule: nonzero; opacity: 1;" transform=" matrix(1 0 0 1 0 0) " stroke-linecap="round"/>
    <path
      d="M 46.178 64.584 h -5.683 c -0.966 0 -1.75 -0.783 -1.75 -1.75 s 0.784 -1.75 1.75 -1.75 h 5.683 c 0.744 0 1.35 -0.605 1.35 -1.35 v -2.102 c 0 -0.744 -0.605 -1.35 -1.35 -1.35 h -2.583 c -2.674 0 -4.849 -2.176 -4.849 -4.85 v -2.102 c 0 -2.674 2.175 -4.849 4.849 -4.849 h 3.662 c 0.967 0 1.75 0.784 1.75 1.75 c 0 0.967 -0.783 1.75 -1.75 1.75 h -3.662 c -0.744 0 -1.349 0.605 -1.349 1.349 v 2.102 c 0 0.744 0.605 1.35 1.349 1.35 h 2.583 c 2.674 0 4.85 2.176 4.85 4.85 v 2.102 C 51.027 62.408 48.852 64.584 46.178 64.584 z"
      style="stroke: none; stroke-width: 1; stroke-dasharray: none; stroke-linecap: butt; stroke-linejoin: miter; stroke-miterlimit: 10; fill: rgb(255,255,255); fill-rule: nonzero; opacity: 1;" transform=" matrix(1 0 0 1 0 0) " stroke-linecap="round"/>
    <path
      d="M 63.178 64.584 h -5.683 c -0.967 0 -1.75 -0.783 -1.75 -1.75 s 0.783 -1.75 1.75 -1.75 h 5.683 c 0.744 0 1.35 -0.605 1.35 -1.35 v -2.102 c 0 -0.744 -0.605 -1.35 -1.35 -1.35 h -2.583 c -2.674 0 -4.85 -2.176 -4.85 -4.85 v -2.102 c 0 -2.674 2.176 -4.849 4.85 -4.849 h 3.661 c 0.967 0 1.75 0.784 1.75 1.75 c 0 0.967 -0.783 1.75 -1.75 1.75 h -3.661 c -0.744 0 -1.35 0.605 -1.35 1.349 v 2.102 c 0 0.744 0.605 1.35 1.35 1.35 h 2.583 c 2.674 0 4.85 2.176 4.85 4.85 v 2.102 C 68.027 62.408 65.852 64.584 63.178 64.584 z"
      style="stroke: none; stroke-width: 1; stroke-dasharray: none; stroke-linecap: butt; stroke-linejoin: miter; stroke-miterlimit: 10; fill: rgb(255,255,255); fill-rule: nonzero; opacity: 1;" transform=" matrix(1 0 0 1 0 0) " stroke-linecap="round"/>
</g>
</svg>
