<svg xmlns="http://www.w3.org/2000/svg" xmlns:xlink="http://www.w3.org/1999/xlink" version="1.1" width="256" height="256" viewBox="0 0 256 256" xml:space="preserve">

<defs>
</defs>
  <g style="stroke: none; stroke-width: 0; stroke-dasharray: none; stroke-linecap: butt; stroke-linejoin: miter; stroke-miterlimit: 10; fill: none; fill-rule: nonzero; opacity: 1;" transform="translate(1.4065934065934016 1.4065934065934016) scale(2.81 2.81)">
	<path d="M 19.309 0 C 15.04 0 11.58 3.46 11.58 7.729 v 47.153 v 27.389 c 0 4.269 3.46 7.729 7.729 7.729 h 51.382 c 4.269 0 7.729 -3.46 7.729 -7.729 V 54.882 V 25.82 L 52.601 0 H 19.309 z" style="stroke: none; stroke-width: 1; stroke-dasharray: none; stroke-linecap: butt; stroke-linejoin: miter; stroke-miterlimit: 10; fill: rgb(2,99,209); fill-rule: nonzero; opacity: 1;" transform=" matrix(1 0 0 1 0 0) " stroke-linecap="round"/>
    <path d="M 78.42 25.82 H 60.159 c -4.175 0 -7.559 -3.384 -7.559 -7.559 V 0 L 78.42 25.82 z" style="stroke: none; stroke-width: 1; stroke-dasharray: none; stroke-linecap: butt; stroke-linejoin: miter; stroke-miterlimit: 10; fill: rgb(78,146,223); fill-rule: nonzero; opacity: 1;" transform=" matrix(1 0 0 1 0 0) " stroke-linecap="round"/>
    <path d="M 38.02 63.442 c -3.225 0 -5.848 -2.623 -5.848 -5.848 v -7.297 c 0 -3.225 2.623 -5.848 5.848 -5.848 s 5.848 2.623 5.848 5.848 v 7.297 C 43.867 60.819 41.244 63.442 38.02 63.442 z M 38.02 47.95 c -1.295 0 -2.348 1.053 -2.348 2.348 v 7.297 c 0 1.295 1.053 2.348 2.348 2.348 h 0 c 1.294 0 2.348 -1.053 2.348 -2.348 v -7.297 C 40.367 49.003 39.314 47.95 38.02 47.95 z"
          style="stroke: none; stroke-width: 1; stroke-dasharray: none; stroke-linecap: butt; stroke-linejoin: miter; stroke-miterlimit: 10; fill: rgb(255,255,255); fill-rule: nonzero; opacity: 1;" transform=" matrix(1 0 0 1 0 0) " stroke-linecap="round"/>
    <path d="M 21.928 63.442 h -3.15 c -0.966 0 -1.75 -0.783 -1.75 -1.75 V 46.2 c 0 -0.966 0.784 -1.75 1.75 -1.75 h 3.15 c 3.747 0 6.795 3.049 6.795 6.796 v 5.401 C 28.723 60.395 25.675 63.442 21.928 63.442 z M 20.527 59.942 h 1.4 c 1.817 0 3.295 -1.479 3.295 -3.295 v -5.401 c 0 -1.817 -1.479 -3.296 -3.295 -3.296 h -1.4 V 59.942 z"
          style="stroke: none; stroke-width: 1; stroke-dasharray: none; stroke-linecap: butt; stroke-linejoin: miter; stroke-miterlimit: 10; fill: rgb(255,255,255); fill-rule: nonzero; opacity: 1;" transform=" matrix(1 0 0 1 0 0) " stroke-linecap="round"/>
    <path d="M 56.257 63.442 H 53.66 c -3.544 0 -6.427 -2.883 -6.427 -6.427 v -6.139 c 0 -3.544 2.883 -6.427 6.427 -6.427 h 2.597 c 0.967 0 1.75 0.784 1.75 1.75 c 0 0.967 -0.783 1.75 -1.75 1.75 H 53.66 c -1.614 0 -2.927 1.312 -2.927 2.927 v 6.139 c 0 1.614 1.312 2.927 2.927 2.927 h 2.597 c 0.967 0 1.75 0.783 1.75 1.75 S 57.224 63.442 56.257 63.442 z"
          style="stroke: none; stroke-width: 1; stroke-dasharray: none; stroke-linecap: butt; stroke-linejoin: miter; stroke-miterlimit: 10; fill: rgb(255,255,255); fill-rule: nonzero; opacity: 1;" transform=" matrix(1 0 0 1 0 0) " stroke-linecap="round"/>
    <path d="M 71.225 63.442 c -0.628 0 -1.234 -0.338 -1.549 -0.932 l -8.196 -15.492 c -0.452 -0.854 -0.126 -1.913 0.729 -2.365 c 0.856 -0.453 1.913 -0.124 2.365 0.729 l 8.196 15.492 c 0.452 0.854 0.126 1.913 -0.729 2.365 C 71.78 63.377 71.5 63.442 71.225 63.442 z" style="stroke: none; stroke-width: 1; stroke-dasharray: none; stroke-linecap: butt; stroke-linejoin: miter; stroke-miterlimit: 10; fill: rgb(255,255,255); fill-rule: nonzero; opacity: 1;" transform=" matrix(1 0 0 1 0 0) "
          stroke-linecap="round"/>
    <path d="M 63.024 63.442 c -0.275 0 -0.556 -0.065 -0.816 -0.203 c -0.854 -0.452 -1.181 -1.511 -0.729 -2.365 l 8.196 -15.492 c 0.451 -0.853 1.511 -1.181 2.365 -0.729 c 0.854 0.452 1.181 1.511 0.729 2.365 l -8.196 15.492 C 64.26 63.104 63.652 63.442 63.024 63.442 z" style="stroke: none; stroke-width: 1; stroke-dasharray: none; stroke-linecap: butt; stroke-linejoin: miter; stroke-miterlimit: 10; fill: rgb(255,255,255); fill-rule: nonzero; opacity: 1;" transform=" matrix(1 0 0 1 0 0) "
          stroke-linecap="round"/>
</g>
</svg>
