<svg xmlns="http://www.w3.org/2000/svg" xmlns:xlink="http://www.w3.org/1999/xlink" version="1.1" width="256" height="256" viewBox="0 0 256 256" xml:space="preserve">

<defs>
</defs>
  <g style="stroke: none; stroke-width: 0; stroke-dasharray: none; stroke-linecap: butt; stroke-linejoin: miter; stroke-miterlimit: 10; fill: none; fill-rule: nonzero; opacity: 1;" transform="translate(1.4065934065934016 1.4065934065934016) scale(2.81 2.81)">
	<path d="M 19.309 0 C 15.04 0 11.58 3.46 11.58 7.729 v 47.153 v 27.389 c 0 4.269 3.46 7.729 7.729 7.729 h 51.382 c 4.269 0 7.729 -3.46 7.729 -7.729 V 54.882 V 25.82 L 52.601 0 H 19.309 z" style="stroke: none; stroke-width: 1; stroke-dasharray: none; stroke-linecap: butt; stroke-linejoin: miter; stroke-miterlimit: 10; fill: rgb(58,58,58); fill-rule: nonzero; opacity: 1;" transform=" matrix(1 0 0 1 0 0) " stroke-linecap="round"/>
    <path d="M 78.42 25.82 H 60.159 c -4.175 0 -7.559 -3.384 -7.559 -7.559 V 0 L 78.42 25.82 z" style="stroke: none; stroke-width: 1; stroke-dasharray: none; stroke-linecap: butt; stroke-linejoin: miter; stroke-miterlimit: 10; fill: rgb(99,99,99); fill-rule: nonzero; opacity: 1;" transform=" matrix(1 0 0 1 0 0) " stroke-linecap="round"/>
    <path
      d="M 66.556 68.937 h -3.001 c -2.837 0 -5.146 -2.309 -5.146 -5.146 v -8.737 c 0 -2.825 2.299 -5.134 5.124 -5.146 l 3.678 -0.016 c 0.003 0 0.006 0 0.008 0 c 0.963 0 1.746 0.778 1.75 1.742 c 0.004 0.967 -0.776 1.754 -1.742 1.758 l -3.679 0.016 c -0.903 0.004 -1.639 0.742 -1.639 1.646 v 8.737 c 0 0.907 0.738 1.646 1.646 1.646 h 3.001 c 0.658 0 1.194 -0.536 1.194 -1.194 v -2.775 c 0 -0.658 -0.536 -1.194 -1.194 -1.194 c -0.967 0 -1.75 -0.783 -1.75 -1.75 s 0.783 -1.75 1.75 -1.75 c 2.589 0 4.694 2.105 4.694 4.694 v 2.775 C 71.25 66.831 69.145 68.937 66.556 68.937 z"
      style="stroke: none; stroke-width: 1; stroke-dasharray: none; stroke-linecap: butt; stroke-linejoin: miter; stroke-miterlimit: 10; fill: rgb(255,255,255); fill-rule: nonzero; opacity: 1;" transform=" matrix(1 0 0 1 0 0) " stroke-linecap="round"/>
    <path d="M 27.289 68.937 H 21.5 c -0.966 0 -1.75 -0.783 -1.75 -1.75 V 51.643 c 0 -0.967 0.784 -1.75 1.75 -1.75 h 5.789 c 2.895 0 5.25 2.355 5.25 5.25 v 8.544 C 32.539 66.581 30.184 68.937 27.289 68.937 z M 23.25 65.437 h 4.039 c 0.965 0 1.75 -0.785 1.75 -1.75 v -8.544 c 0 -0.965 -0.785 -1.75 -1.75 -1.75 H 23.25 V 65.437 z"
          style="stroke: none; stroke-width: 1; stroke-dasharray: none; stroke-linecap: butt; stroke-linejoin: miter; stroke-miterlimit: 10; fill: rgb(255,255,255); fill-rule: nonzero; opacity: 1;" transform=" matrix(1 0 0 1 0 0) " stroke-linecap="round"/>
    <path
      d="M 51.324 68.937 c -0.528 0 -1.039 -0.24 -1.377 -0.669 l -4.315 -5.497 l -4.315 5.497 c -0.437 0.557 -1.165 0.792 -1.848 0.604 c -0.682 -0.191 -1.181 -0.773 -1.266 -1.477 l -1.873 -15.544 c -0.116 -0.959 0.568 -1.831 1.528 -1.946 c 0.961 -0.12 1.832 0.568 1.947 1.528 l 1.367 11.35 l 3.083 -3.928 c 0.664 -0.844 2.09 -0.844 2.753 0 l 3.083 3.928 l 1.367 -11.35 c 0.114 -0.959 0.978 -1.651 1.946 -1.528 c 0.96 0.115 1.644 0.987 1.528 1.946 l -1.872 15.544 c -0.085 0.703 -0.584 1.285 -1.266 1.477 C 51.64 68.915 51.481 68.937 51.324 68.937 z"
      style="stroke: none; stroke-width: 1; stroke-dasharray: none; stroke-linecap: butt; stroke-linejoin: miter; stroke-miterlimit: 10; fill: rgb(255,255,255); fill-rule: nonzero; opacity: 1;" transform=" matrix(1 0 0 1 0 0) " stroke-linecap="round"/>
</g>
</svg>
