<svg xmlns="http://www.w3.org/2000/svg" xmlns:xlink="http://www.w3.org/1999/xlink" version="1.1" width="256" height="256" viewBox="0 0 256 256" xml:space="preserve">

<defs>
</defs>
  <g style="stroke: none; stroke-width: 0; stroke-dasharray: none; stroke-linecap: butt; stroke-linejoin: miter; stroke-miterlimit: 10; fill: none; fill-rule: nonzero; opacity: 1;" transform="translate(1.4065934065934016 1.4065934065934016) scale(2.81 2.81)">
	<path d="M 19.309 0 C 15.04 0 11.58 3.46 11.58 7.729 v 47.153 v 27.389 c 0 4.269 3.46 7.729 7.729 7.729 h 51.382 c 4.269 0 7.729 -3.46 7.729 -7.729 V 54.882 V 25.82 L 52.601 0 H 19.309 z" style="stroke: none; stroke-width: 1; stroke-dasharray: none; stroke-linecap: butt; stroke-linejoin: miter; stroke-miterlimit: 10; fill: rgb(2,99,209); fill-rule: nonzero; opacity: 1;" transform=" matrix(1 0 0 1 0 0) " stroke-linecap="round"/>
    <path d="M 78.42 25.82 H 60.159 c -4.175 0 -7.559 -3.384 -7.559 -7.559 V 0 L 78.42 25.82 z" style="stroke: none; stroke-width: 1; stroke-dasharray: none; stroke-linecap: butt; stroke-linejoin: miter; stroke-miterlimit: 10; fill: rgb(78,146,223); fill-rule: nonzero; opacity: 1;" transform=" matrix(1 0 0 1 0 0) " stroke-linecap="round"/>
    <path d="M 47.11 57.34 h -6.156 c -0.966 0 -1.75 -0.783 -1.75 -1.75 V 45.5 c 0 -0.966 0.784 -1.75 1.75 -1.75 h 6.156 c 2.529 0 4.588 2.058 4.588 4.588 v 4.414 C 51.698 55.281 49.64 57.34 47.11 57.34 z M 42.705 53.84 h 4.406 c 0.6 0 1.088 -0.488 1.088 -1.088 v -4.414 c 0 -0.6 -0.488 -1.088 -1.088 -1.088 h -4.406 V 53.84 z"
          style="stroke: none; stroke-width: 1; stroke-dasharray: none; stroke-linecap: butt; stroke-linejoin: miter; stroke-miterlimit: 10; fill: rgb(255,255,255); fill-rule: nonzero; opacity: 1;" transform=" matrix(1 0 0 1 0 0) " stroke-linecap="round"/>
    <path d="M 40.955 64.25 c -0.966 0 -1.75 -0.783 -1.75 -1.75 v -6.91 c 0 -0.967 0.784 -1.75 1.75 -1.75 s 1.75 0.783 1.75 1.75 v 6.91 C 42.705 63.467 41.921 64.25 40.955 64.25 z" style="stroke: none; stroke-width: 1; stroke-dasharray: none; stroke-linecap: butt; stroke-linejoin: miter; stroke-miterlimit: 10; fill: rgb(255,255,255); fill-rule: nonzero; opacity: 1;" transform=" matrix(1 0 0 1 0 0) " stroke-linecap="round"/>
    <path d="M 32.13 64.25 h -8.994 c -0.966 0 -1.75 -0.783 -1.75 -1.75 v -17 c 0 -0.966 0.784 -1.75 1.75 -1.75 s 1.75 0.784 1.75 1.75 v 15.25 h 7.244 c 0.966 0 1.75 0.783 1.75 1.75 S 33.097 64.25 32.13 64.25 z" style="stroke: none; stroke-width: 1; stroke-dasharray: none; stroke-linecap: butt; stroke-linejoin: miter; stroke-miterlimit: 10; fill: rgb(255,255,255); fill-rule: nonzero; opacity: 1;" transform=" matrix(1 0 0 1 0 0) " stroke-linecap="round"/>
    <path d="M 32.13 47.25 h -8.994 c -0.966 0 -1.75 -0.783 -1.75 -1.75 c 0 -0.966 0.784 -1.75 1.75 -1.75 h 8.994 c 0.966 0 1.75 0.784 1.75 1.75 C 33.88 46.467 33.097 47.25 32.13 47.25 z" style="stroke: none; stroke-width: 1; stroke-dasharray: none; stroke-linecap: butt; stroke-linejoin: miter; stroke-miterlimit: 10; fill: rgb(255,255,255); fill-rule: nonzero; opacity: 1;" transform=" matrix(1 0 0 1 0 0) " stroke-linecap="round"/>
    <path d="M 29.026 55.75 h -5.89 c -0.966 0 -1.75 -0.783 -1.75 -1.75 s 0.784 -1.75 1.75 -1.75 h 5.89 c 0.966 0 1.75 0.783 1.75 1.75 S 29.993 55.75 29.026 55.75 z" style="stroke: none; stroke-width: 1; stroke-dasharray: none; stroke-linecap: butt; stroke-linejoin: miter; stroke-miterlimit: 10; fill: rgb(255,255,255); fill-rule: nonzero; opacity: 1;" transform=" matrix(1 0 0 1 0 0) " stroke-linecap="round"/>
    <path
      d="M 63.689 64.25 H 57.87 c -0.967 0 -1.75 -0.783 -1.75 -1.75 s 0.783 -1.75 1.75 -1.75 h 5.819 c 0.785 0 1.424 -0.639 1.424 -1.424 v -2.152 c 0 -0.785 -0.639 -1.424 -1.424 -1.424 h -2.646 c -2.715 0 -4.924 -2.209 -4.924 -4.924 v -2.152 c 0 -2.715 2.209 -4.924 4.924 -4.924 h 3.749 c 0.967 0 1.75 0.784 1.75 1.75 c 0 0.967 -0.783 1.75 -1.75 1.75 h -3.749 c -0.785 0 -1.424 0.639 -1.424 1.424 v 2.152 c 0 0.785 0.639 1.424 1.424 1.424 h 2.646 c 2.715 0 4.924 2.209 4.924 4.924 v 2.152 C 68.613 62.041 66.404 64.25 63.689 64.25 z"
      style="stroke: none; stroke-width: 1; stroke-dasharray: none; stroke-linecap: butt; stroke-linejoin: miter; stroke-miterlimit: 10; fill: rgb(255,255,255); fill-rule: nonzero; opacity: 1;" transform=" matrix(1 0 0 1 0 0) " stroke-linecap="round"/>
</g>
</svg>
