<svg xmlns="http://www.w3.org/2000/svg" xmlns:xlink="http://www.w3.org/1999/xlink" version="1.1" width="256" height="256" viewBox="0 0 256 256" xml:space="preserve">

<defs>
</defs>
  <g style="stroke: none; stroke-width: 0; stroke-dasharray: none; stroke-linecap: butt; stroke-linejoin: miter; stroke-miterlimit: 10; fill: none; fill-rule: nonzero; opacity: 1;" transform="translate(1.4065934065934016 1.4065934065934016) scale(2.81 2.81)">
	<path d="M 19.309 0 C 15.04 0 11.58 3.46 11.58 7.729 v 47.153 v 27.389 c 0 4.269 3.46 7.729 7.729 7.729 h 51.382 c 4.269 0 7.729 -3.46 7.729 -7.729 V 54.882 V 25.82 L 52.601 0 H 19.309 z" style="stroke: none; stroke-width: 1; stroke-dasharray: none; stroke-linecap: butt; stroke-linejoin: miter; stroke-miterlimit: 10; fill: rgb(255,102,0); fill-rule: nonzero; opacity: 1;" transform=" matrix(1 0 0 1 0 0) " stroke-linecap="round"/>
    <path d="M 78.42 25.82 H 60.159 c -4.175 0 -7.559 -3.384 -7.559 -7.559 V 0 L 78.42 25.82 z" style="stroke: none; stroke-width: 1; stroke-dasharray: none; stroke-linecap: butt; stroke-linejoin: miter; stroke-miterlimit: 10; fill: rgb(255,148,77); fill-rule: nonzero; opacity: 1;" transform=" matrix(1 0 0 1 0 0) " stroke-linecap="round"/>
    <path d="M 18.777 55.726 c -0.966 0 -1.75 -0.783 -1.75 -1.75 V 40.152 c 0 -0.966 0.784 -1.75 1.75 -1.75 s 1.75 0.784 1.75 1.75 v 13.823 C 20.527 54.942 19.744 55.726 18.777 55.726 z" style="stroke: none; stroke-width: 1; stroke-dasharray: none; stroke-linecap: butt; stroke-linejoin: miter; stroke-miterlimit: 10; fill: rgb(255,255,255); fill-rule: nonzero; opacity: 1;" transform=" matrix(1 0 0 1 0 0) " stroke-linecap="round"/>
    <path d="M 71.223 55.726 h -4.952 c -2.267 0 -4.111 -1.845 -4.111 -4.111 V 40.152 c 0 -0.966 0.783 -1.75 1.75 -1.75 s 1.75 0.784 1.75 1.75 v 11.462 c 0 0.337 0.274 0.611 0.611 0.611 h 4.952 c 0.967 0 1.75 0.783 1.75 1.75 S 72.189 55.726 71.223 55.726 z" style="stroke: none; stroke-width: 1; stroke-dasharray: none; stroke-linecap: butt; stroke-linejoin: miter; stroke-miterlimit: 10; fill: rgb(255,255,255); fill-rule: nonzero; opacity: 1;" transform=" matrix(1 0 0 1 0 0) "
          stroke-linecap="round"/>
    <path d="M 26.09 55.726 c -0.966 0 -1.75 -0.783 -1.75 -1.75 V 40.152 c 0 -0.966 0.784 -1.75 1.75 -1.75 s 1.75 0.784 1.75 1.75 v 13.823 C 27.84 54.942 27.057 55.726 26.09 55.726 z" style="stroke: none; stroke-width: 1; stroke-dasharray: none; stroke-linecap: butt; stroke-linejoin: miter; stroke-miterlimit: 10; fill: rgb(255,255,255); fill-rule: nonzero; opacity: 1;" transform=" matrix(1 0 0 1 0 0) " stroke-linecap="round"/>
    <path d="M 26.09 48.814 h -7.313 c -0.966 0 -1.75 -0.783 -1.75 -1.75 s 0.784 -1.75 1.75 -1.75 h 7.313 c 0.966 0 1.75 0.783 1.75 1.75 S 27.057 48.814 26.09 48.814 z" style="stroke: none; stroke-width: 1; stroke-dasharray: none; stroke-linecap: butt; stroke-linejoin: miter; stroke-miterlimit: 10; fill: rgb(255,255,255); fill-rule: nonzero; opacity: 1;" transform=" matrix(1 0 0 1 0 0) " stroke-linecap="round"/>
    <path d="M 39.797 41.902 h -7.313 c -0.966 0 -1.75 -0.784 -1.75 -1.75 s 0.784 -1.75 1.75 -1.75 h 7.313 c 0.966 0 1.75 0.784 1.75 1.75 S 40.763 41.902 39.797 41.902 z" style="stroke: none; stroke-width: 1; stroke-dasharray: none; stroke-linecap: butt; stroke-linejoin: miter; stroke-miterlimit: 10; fill: rgb(255,255,255); fill-rule: nonzero; opacity: 1;" transform=" matrix(1 0 0 1 0 0) " stroke-linecap="round"/>
    <path d="M 36.141 55.726 c -0.966 0 -1.75 -0.783 -1.75 -1.75 V 40.152 c 0 -0.966 0.784 -1.75 1.75 -1.75 s 1.75 0.784 1.75 1.75 v 13.823 C 37.891 54.942 37.107 55.726 36.141 55.726 z" style="stroke: none; stroke-width: 1; stroke-dasharray: none; stroke-linecap: butt; stroke-linejoin: miter; stroke-miterlimit: 10; fill: rgb(255,255,255); fill-rule: nonzero; opacity: 1;" transform=" matrix(1 0 0 1 0 0) " stroke-linecap="round"/>
    <path d="M 46.521 55.726 c -0.966 0 -1.75 -0.783 -1.75 -1.75 V 40.152 c 0 -0.746 0.473 -1.41 1.178 -1.654 c 0.704 -0.245 1.486 -0.015 1.949 0.573 l 5.062 6.447 c 0.597 0.76 0.464 1.86 -0.296 2.458 c -0.762 0.596 -1.86 0.464 -2.458 -0.296 l -1.935 -2.465 v 8.76 C 48.271 54.942 47.487 55.726 46.521 55.726 z" style="stroke: none; stroke-width: 1; stroke-dasharray: none; stroke-linecap: butt; stroke-linejoin: miter; stroke-miterlimit: 10; fill: rgb(255,255,255); fill-rule: nonzero; opacity: 1;"
          transform=" matrix(1 0 0 1 0 0) " stroke-linecap="round"/>
    <path d="M 56.645 55.726 c -0.967 0 -1.75 -0.783 -1.75 -1.75 v -8.761 l -1.937 2.466 c -0.596 0.761 -1.696 0.894 -2.457 0.295 c -0.76 -0.597 -0.893 -1.696 -0.295 -2.457 l 5.062 -6.447 c 0.461 -0.588 1.243 -0.817 1.947 -0.573 c 0.706 0.244 1.179 0.908 1.179 1.654 v 13.823 C 58.395 54.942 57.611 55.726 56.645 55.726 z"
          style="stroke: none; stroke-width: 1; stroke-dasharray: none; stroke-linecap: butt; stroke-linejoin: miter; stroke-miterlimit: 10; fill: rgb(255,255,255); fill-rule: nonzero; opacity: 1;" transform=" matrix(1 0 0 1 0 0) " stroke-linecap="round"/>
    <path d="M 45.562 78.69 h -4.509 c -0.966 0 -1.75 -0.783 -1.75 -1.75 s 0.784 -1.75 1.75 -1.75 h 4.509 c 0.902 0 1.635 -0.733 1.635 -1.636 v -1.124 c 0 -0.901 -0.733 -1.635 -1.635 -1.635 h -4.509 c -0.966 0 -1.75 -0.783 -1.75 -1.75 v -7.894 c 0 -0.967 0.784 -1.75 1.75 -1.75 h 5.981 c 0.967 0 1.75 0.783 1.75 1.75 s -0.783 1.75 -1.75 1.75 h -4.231 v 4.394 h 2.759 c 2.832 0 5.135 2.304 5.135 5.135 v 1.124 C 50.697 76.387 48.394 78.69 45.562 78.69 z"
          style="stroke: none; stroke-width: 1; stroke-dasharray: none; stroke-linecap: butt; stroke-linejoin: miter; stroke-miterlimit: 10; fill: rgb(255,255,255); fill-rule: nonzero; opacity: 1;" transform=" matrix(1 0 0 1 0 0) " stroke-linecap="round"/>
</g>
</svg>
