<svg xmlns="http://www.w3.org/2000/svg" xmlns:xlink="http://www.w3.org/1999/xlink" version="1.1" width="256" height="256" viewBox="0 0 256 256" xml:space="preserve">

<defs>
</defs>
  <g style="stroke: none; stroke-width: 0; stroke-dasharray: none; stroke-linecap: butt; stroke-linejoin: miter; stroke-miterlimit: 10; fill: none; fill-rule: nonzero; opacity: 1;" transform="translate(1.4065934065934016 1.4065934065934016) scale(2.81 2.81)">
	<path d="M 19.309 0 C 15.04 0 11.58 3.46 11.58 7.729 v 47.153 v 27.389 c 0 4.269 3.46 7.729 7.729 7.729 h 51.382 c 4.269 0 7.729 -3.46 7.729 -7.729 V 54.882 V 25.82 L 52.601 0 H 19.309 z" style="stroke: none; stroke-width: 1; stroke-dasharray: none; stroke-linecap: butt; stroke-linejoin: miter; stroke-miterlimit: 10; fill: rgb(117,66,237); fill-rule: nonzero; opacity: 1;" transform=" matrix(1 0 0 1 0 0) " stroke-linecap="round"/>
    <path d="M 78.42 25.82 H 60.159 c -4.175 0 -7.559 -3.384 -7.559 -7.559 V 0 L 78.42 25.82 z" style="stroke: none; stroke-width: 1; stroke-dasharray: none; stroke-linecap: butt; stroke-linejoin: miter; stroke-miterlimit: 10; fill: rgb(136,99,252); fill-rule: nonzero; opacity: 1;" transform=" matrix(1 0 0 1 0 0) " stroke-linecap="round"/>
    <path d="M 56.994 64.461 c -3.416 0 -6.195 -2.779 -6.195 -6.195 v -7.915 c 0 -3.416 2.779 -6.195 6.195 -6.195 s 6.195 2.779 6.195 6.195 v 7.915 C 63.189 61.682 60.41 64.461 56.994 64.461 z M 56.994 47.656 c -1.486 0 -2.695 1.208 -2.695 2.694 v 7.915 c 0 1.486 1.209 2.695 2.695 2.695 s 2.695 -1.209 2.695 -2.695 v -7.915 C 59.689 48.864 58.48 47.656 56.994 47.656 z"
          style="stroke: none; stroke-width: 1; stroke-dasharray: none; stroke-linecap: butt; stroke-linejoin: miter; stroke-miterlimit: 10; fill: rgb(255,255,255); fill-rule: nonzero; opacity: 1;" transform=" matrix(1 0 0 1 0 0) " stroke-linecap="round"/>
    <path d="M 44.778 64.461 H 41.96 c -3.762 0 -6.823 -3.061 -6.823 -6.823 v -6.659 c 0 -3.762 3.061 -6.823 6.823 -6.823 h 2.817 c 0.966 0 1.75 0.784 1.75 1.75 s -0.783 1.75 -1.75 1.75 H 41.96 c -1.833 0 -3.323 1.49 -3.323 3.322 v 6.659 c 0 1.832 1.491 3.323 3.323 3.323 h 2.817 c 0.966 0 1.75 0.783 1.75 1.75 S 45.744 64.461 44.778 64.461 z"
          style="stroke: none; stroke-width: 1; stroke-dasharray: none; stroke-linecap: butt; stroke-linejoin: miter; stroke-miterlimit: 10; fill: rgb(255,255,255); fill-rule: nonzero; opacity: 1;" transform=" matrix(1 0 0 1 0 0) " stroke-linecap="round"/>
    <path d="M 28.561 64.34 c -0.966 0 -1.75 -0.783 -1.75 -1.75 V 45.906 c 0 -0.966 0.784 -1.75 1.75 -1.75 s 1.75 0.784 1.75 1.75 V 62.59 C 30.311 63.557 29.527 64.34 28.561 64.34 z" style="stroke: none; stroke-width: 1; stroke-dasharray: none; stroke-linecap: butt; stroke-linejoin: miter; stroke-miterlimit: 10; fill: rgb(255,255,255); fill-rule: nonzero; opacity: 1;" transform=" matrix(1 0 0 1 0 0) " stroke-linecap="round"/>
</g>
</svg>
