<svg xmlns="http://www.w3.org/2000/svg" xmlns:xlink="http://www.w3.org/1999/xlink" version="1.1" width="256" height="256" viewBox="0 0 256 256" xml:space="preserve">

<defs>
</defs>
  <g style="stroke: none; stroke-width: 0; stroke-dasharray: none; stroke-linecap: butt; stroke-linejoin: miter; stroke-miterlimit: 10; fill: none; fill-rule: nonzero; opacity: 1;" transform="translate(1.4065934065934016 1.4065934065934016) scale(2.81 2.81)">
	<path d="M 19.309 0 C 15.04 0 11.58 3.46 11.58 7.729 v 47.153 v 27.389 c 0 4.269 3.46 7.729 7.729 7.729 h 51.382 c 4.269 0 7.729 -3.46 7.729 -7.729 V 54.882 V 25.82 L 52.601 0 H 19.309 z" style="stroke: none; stroke-width: 1; stroke-dasharray: none; stroke-linecap: butt; stroke-linejoin: miter; stroke-miterlimit: 10; fill: rgb(224,198,0); fill-rule: nonzero; opacity: 1;" transform=" matrix(1 0 0 1 0 0) " stroke-linecap="round"/>
    <path d="M 78.42 25.82 H 60.159 c -4.175 0 -7.559 -3.384 -7.559 -7.559 V 0 L 78.42 25.82 z" style="stroke: none; stroke-width: 1; stroke-dasharray: none; stroke-linecap: butt; stroke-linejoin: miter; stroke-miterlimit: 10; fill: rgb(233,215,77); fill-rule: nonzero; opacity: 1;" transform=" matrix(1 0 0 1 0 0) " stroke-linecap="round"/>
    <path d="M 37.401 64.776 h -1.288 c -3.061 0 -5.551 -2.49 -5.551 -5.552 v -1.136 c 0 -0.967 0.784 -1.75 1.75 -1.75 s 1.75 0.783 1.75 1.75 v 1.136 c 0 1.131 0.92 2.052 2.051 2.052 h 1.288 c 1.131 0 2.051 -0.921 2.051 -2.052 V 46.221 c 0 -0.966 0.784 -1.75 1.75 -1.75 s 1.75 0.784 1.75 1.75 v 13.004 C 42.953 62.286 40.462 64.776 37.401 64.776 z"
          style="stroke: none; stroke-width: 1; stroke-dasharray: none; stroke-linecap: butt; stroke-linejoin: miter; stroke-miterlimit: 10; fill: rgb(255,255,255); fill-rule: nonzero; opacity: 1;" transform=" matrix(1 0 0 1 0 0) " stroke-linecap="round"/>
    <path
      d="M 54.729 64.776 h -5.932 c -0.967 0 -1.75 -0.783 -1.75 -1.75 s 0.783 -1.75 1.75 -1.75 h 5.932 c 0.667 0 1.209 -0.542 1.209 -1.209 v -2.485 c 0 -0.667 -0.542 -1.209 -1.209 -1.209 h -2.974 c -2.596 0 -4.708 -2.112 -4.708 -4.708 v -2.486 c 0 -2.596 2.112 -4.708 4.708 -4.708 h 3.886 c 0.967 0 1.75 0.784 1.75 1.75 c 0 0.967 -0.783 1.75 -1.75 1.75 h -3.886 c -0.666 0 -1.208 0.542 -1.208 1.208 v 2.486 c 0 0.666 0.542 1.208 1.208 1.208 h 2.974 c 2.597 0 4.709 2.112 4.709 4.709 v 2.485 C 59.438 62.664 57.326 64.776 54.729 64.776 z"
      style="stroke: none; stroke-width: 1; stroke-dasharray: none; stroke-linecap: butt; stroke-linejoin: miter; stroke-miterlimit: 10; fill: rgb(255,255,255); fill-rule: nonzero; opacity: 1;" transform=" matrix(1 0 0 1 0 0) " stroke-linecap="round"/>
</g>
</svg>
