<svg xmlns="http://www.w3.org/2000/svg" xmlns:xlink="http://www.w3.org/1999/xlink" version="1.1" width="256" height="256" viewBox="0 0 256 256" xml:space="preserve">

<defs>
</defs>
  <g style="stroke: none; stroke-width: 0; stroke-dasharray: none; stroke-linecap: butt; stroke-linejoin: miter; stroke-miterlimit: 10; fill: none; fill-rule: nonzero; opacity: 1;" transform="translate(1.4065934065934016 1.4065934065934016) scale(2.81 2.81)">
	<path d="M 19.309 0 C 15.04 0 11.58 3.46 11.58 7.729 v 47.153 v 27.389 c 0 4.269 3.46 7.729 7.729 7.729 h 51.382 c 4.269 0 7.729 -3.46 7.729 -7.729 V 54.882 V 25.82 L 52.601 0 H 19.309 z" style="stroke: none; stroke-width: 1; stroke-dasharray: none; stroke-linecap: butt; stroke-linejoin: miter; stroke-miterlimit: 10; fill: rgb(58,58,58); fill-rule: nonzero; opacity: 1;" transform=" matrix(1 0 0 1 0 0) " stroke-linecap="round"/>
    <path d="M 78.42 25.82 H 60.159 c -4.175 0 -7.559 -3.384 -7.559 -7.559 V 0 L 78.42 25.82 z" style="stroke: none; stroke-width: 1; stroke-dasharray: none; stroke-linecap: butt; stroke-linejoin: miter; stroke-miterlimit: 10; fill: rgb(99,99,99); fill-rule: nonzero; opacity: 1;" transform=" matrix(1 0 0 1 0 0) " stroke-linecap="round"/>
    <path d="M 24.809 63.558 h -0.964 c -2.534 0 -4.595 -2.062 -4.595 -4.595 v -0.85 c 0 -0.967 0.784 -1.75 1.75 -1.75 s 1.75 0.783 1.75 1.75 v 0.85 c 0 0.604 0.491 1.095 1.095 1.095 h 0.964 c 0.604 0 1.094 -0.491 1.094 -1.095 v -9.731 c 0 -0.967 0.784 -1.75 1.75 -1.75 s 1.75 0.783 1.75 1.75 v 9.731 C 29.403 61.496 27.342 63.558 24.809 63.558 z"
          style="stroke: none; stroke-width: 1; stroke-dasharray: none; stroke-linecap: butt; stroke-linejoin: miter; stroke-miterlimit: 10; fill: rgb(255,255,255); fill-rule: nonzero; opacity: 1;" transform=" matrix(1 0 0 1 0 0) " stroke-linecap="round"/>
    <path
      d="M 38.797 63.558 h -4.439 c -0.966 0 -1.75 -0.783 -1.75 -1.75 s 0.784 -1.75 1.75 -1.75 h 4.439 c 0.256 0 0.464 -0.208 0.464 -0.464 v -1.86 c 0 -0.256 -0.208 -0.464 -0.464 -0.464 h -2.225 c -2.186 0 -3.964 -1.778 -3.964 -3.964 v -1.86 c 0 -2.186 1.778 -3.964 3.964 -3.964 h 2.908 c 0.966 0 1.75 0.783 1.75 1.75 s -0.784 1.75 -1.75 1.75 h -2.908 c -0.256 0 -0.464 0.208 -0.464 0.464 v 1.86 c 0 0.256 0.208 0.464 0.464 0.464 h 2.225 c 2.186 0 3.964 1.778 3.964 3.964 v 1.86 C 42.761 61.779 40.983 63.558 38.797 63.558 z"
      style="stroke: none; stroke-width: 1; stroke-dasharray: none; stroke-linecap: butt; stroke-linejoin: miter; stroke-miterlimit: 10; fill: rgb(255,255,255); fill-rule: nonzero; opacity: 1;" transform=" matrix(1 0 0 1 0 0) " stroke-linecap="round"/>
    <path d="M 51.148 63.558 h -0.163 c -3.087 0 -5.598 -2.511 -5.598 -5.598 v -4.881 c 0 -3.087 2.511 -5.598 5.598 -5.598 h 0.163 c 3.087 0 5.598 2.511 5.598 5.598 v 4.881 C 56.746 61.047 54.235 63.558 51.148 63.558 z M 50.985 50.981 c -1.156 0 -2.098 0.941 -2.098 2.098 v 4.881 c 0 1.156 0.941 2.098 2.098 2.098 h 0.163 c 1.156 0 2.098 -0.941 2.098 -2.098 v -4.881 c 0 -1.156 -0.941 -2.098 -2.098 -2.098 H 50.985 z"
          style="stroke: none; stroke-width: 1; stroke-dasharray: none; stroke-linecap: butt; stroke-linejoin: miter; stroke-miterlimit: 10; fill: rgb(255,255,255); fill-rule: nonzero; opacity: 1;" transform=" matrix(1 0 0 1 0 0) " stroke-linecap="round"/>
    <path d="M 69 63.558 c -0.599 0 -1.17 -0.309 -1.494 -0.839 l -4.431 -7.261 v 6.35 c 0 0.967 -0.783 1.75 -1.75 1.75 s -1.75 -0.783 -1.75 -1.75 V 49.231 c 0 -0.784 0.521 -1.473 1.276 -1.685 c 0.756 -0.212 1.559 0.104 1.968 0.773 l 4.431 7.261 v -6.35 c 0 -0.967 0.783 -1.75 1.75 -1.75 s 1.75 0.783 1.75 1.75 v 12.576 c 0 0.784 -0.521 1.473 -1.276 1.685 C 69.316 63.536 69.157 63.558 69 63.558 z"
          style="stroke: none; stroke-width: 1; stroke-dasharray: none; stroke-linecap: butt; stroke-linejoin: miter; stroke-miterlimit: 10; fill: rgb(255,255,255); fill-rule: nonzero; opacity: 1;" transform=" matrix(1 0 0 1 0 0) " stroke-linecap="round"/>
</g>
</svg>
