<svg xmlns="http://www.w3.org/2000/svg" xmlns:xlink="http://www.w3.org/1999/xlink" version="1.1" width="256" height="256" viewBox="0 0 256 256" xml:space="preserve">

<defs>
</defs>
  <g style="stroke: none; stroke-width: 0; stroke-dasharray: none; stroke-linecap: butt; stroke-linejoin: miter; stroke-miterlimit: 10; fill: none; fill-rule: nonzero; opacity: 1;" transform="translate(1.4065934065934016 1.4065934065934016) scale(2.81 2.81)">
	<path d="M 19.309 0 C 15.04 0 11.58 3.46 11.58 7.729 v 47.153 v 27.389 c 0 4.269 3.46 7.729 7.729 7.729 h 51.382 c 4.269 0 7.729 -3.46 7.729 -7.729 V 54.882 V 25.82 L 52.601 0 H 19.309 z" style="stroke: none; stroke-width: 1; stroke-dasharray: none; stroke-linecap: butt; stroke-linejoin: miter; stroke-miterlimit: 10; fill: rgb(2,99,209); fill-rule: nonzero; opacity: 1;" transform=" matrix(1 0 0 1 0 0) " stroke-linecap="round"/>
    <path d="M 78.42 25.82 H 60.159 c -4.175 0 -7.559 -3.384 -7.559 -7.559 V 0 L 78.42 25.82 z" style="stroke: none; stroke-width: 1; stroke-dasharray: none; stroke-linecap: butt; stroke-linejoin: miter; stroke-miterlimit: 10; fill: rgb(78,146,223); fill-rule: nonzero; opacity: 1;" transform=" matrix(1 0 0 1 0 0) " stroke-linecap="round"/>
    <path d="M 32.115 64.364 h -6.172 c -2.588 0 -4.693 -2.105 -4.693 -4.692 V 45.385 c 0 -0.966 0.784 -1.75 1.75 -1.75 s 1.75 0.784 1.75 1.75 v 14.287 c 0 0.657 0.535 1.192 1.193 1.192 h 6.172 c 0.966 0 1.75 0.783 1.75 1.75 S 33.081 64.364 32.115 64.364 z" style="stroke: none; stroke-width: 1; stroke-dasharray: none; stroke-linecap: butt; stroke-linejoin: miter; stroke-miterlimit: 10; fill: rgb(255,255,255); fill-rule: nonzero; opacity: 1;" transform=" matrix(1 0 0 1 0 0) "
          stroke-linecap="round"/>
    <path d="M 43.967 64.364 h -0.65 c -3.298 0 -5.982 -2.684 -5.982 -5.981 v -8.766 c 0 -3.299 2.684 -5.982 5.982 -5.982 h 0.65 c 3.299 0 5.983 2.683 5.983 5.982 v 8.766 C 49.95 61.681 47.267 64.364 43.967 64.364 z M 43.317 47.135 c -1.369 0 -2.482 1.114 -2.482 2.482 v 8.766 c 0 1.368 1.113 2.481 2.482 2.481 h 0.65 c 1.369 0 2.483 -1.113 2.483 -2.481 v -8.766 c 0 -1.368 -1.114 -2.482 -2.483 -2.482 H 43.317 z"
          style="stroke: none; stroke-width: 1; stroke-dasharray: none; stroke-linecap: butt; stroke-linejoin: miter; stroke-miterlimit: 10; fill: rgb(255,255,255); fill-rule: nonzero; opacity: 1;" transform=" matrix(1 0 0 1 0 0) " stroke-linecap="round"/>
    <path
      d="M 63.736 64.364 h -3.327 c -3.04 0 -5.514 -2.473 -5.514 -5.513 v -9.686 c 0 -3.028 2.463 -5.501 5.491 -5.514 l 4.077 -0.017 c 0.003 0 0.006 0 0.008 0 c 0.963 0 1.746 0.779 1.75 1.743 c 0.004 0.967 -0.776 1.753 -1.742 1.757 l -4.078 0.018 c -1.106 0.005 -2.006 0.908 -2.006 2.014 v 9.686 c 0 1.109 0.903 2.013 2.014 2.013 h 3.327 c 0.835 0 1.514 -0.679 1.514 -1.514 v -3.075 c 0 -0.835 -0.679 -1.515 -1.514 -1.515 c -0.967 0 -1.75 -0.783 -1.75 -1.75 s 0.783 -1.75 1.75 -1.75 c 2.765 0 5.014 2.25 5.014 5.015 v 3.075 C 68.75 62.115 66.501 64.364 63.736 64.364 z"
      style="stroke: none; stroke-width: 1; stroke-dasharray: none; stroke-linecap: butt; stroke-linejoin: miter; stroke-miterlimit: 10; fill: rgb(255,255,255); fill-rule: nonzero; opacity: 1;" transform=" matrix(1 0 0 1 0 0) " stroke-linecap="round"/>
</g>
</svg>
