<svg xmlns="http://www.w3.org/2000/svg" xmlns:xlink="http://www.w3.org/1999/xlink" version="1.1" width="256" height="256" viewBox="0 0 256 256" xml:space="preserve">

<defs>
</defs>
  <g style="stroke: none; stroke-width: 0; stroke-dasharray: none; stroke-linecap: butt; stroke-linejoin: miter; stroke-miterlimit: 10; fill: none; fill-rule: nonzero; opacity: 1;" transform="translate(1.4065934065934016 1.4065934065934016) scale(2.81 2.81)">
	<path d="M 19.309 0 C 15.04 0 11.58 3.46 11.58 7.729 v 47.153 v 27.389 c 0 4.269 3.46 7.729 7.729 7.729 h 51.382 c 4.269 0 7.729 -3.46 7.729 -7.729 V 54.882 V 25.82 L 52.601 0 H 19.309 z" style="stroke: none; stroke-width: 1; stroke-dasharray: none; stroke-linecap: butt; stroke-linejoin: miter; stroke-miterlimit: 10; fill: rgb(0,139,245); fill-rule: nonzero; opacity: 1;" transform=" matrix(1 0 0 1 0 0) " stroke-linecap="round"/>
    <path d="M 78.42 25.82 H 60.159 c -4.175 0 -7.559 -3.384 -7.559 -7.559 V 0 L 78.42 25.82 z" style="stroke: none; stroke-width: 1; stroke-dasharray: none; stroke-linecap: butt; stroke-linejoin: miter; stroke-miterlimit: 10; fill: rgb(77,174,248); fill-rule: nonzero; opacity: 1;" transform=" matrix(1 0 0 1 0 0) " stroke-linecap="round"/>
    <path d="M 24 64.752 c -0.966 0 -1.75 -0.783 -1.75 -1.75 V 47.055 c 0 -0.746 0.473 -1.41 1.178 -1.654 c 0.707 -0.243 1.488 -0.013 1.948 0.573 l 5.839 7.438 c 0.597 0.761 0.464 1.86 -0.296 2.458 c -0.759 0.595 -1.86 0.464 -2.457 -0.296 l -2.713 -3.456 v 10.884 C 25.75 63.969 24.966 64.752 24 64.752 z" style="stroke: none; stroke-width: 1; stroke-dasharray: none; stroke-linecap: butt; stroke-linejoin: miter; stroke-miterlimit: 10; fill: rgb(255,255,255); fill-rule: nonzero; opacity: 1;"
          transform=" matrix(1 0 0 1 0 0) " stroke-linecap="round"/>
    <path d="M 35.678 64.752 c -0.966 0 -1.75 -0.783 -1.75 -1.75 V 52.118 l -2.712 3.455 c -0.597 0.763 -1.698 0.893 -2.457 0.297 c -0.76 -0.597 -0.893 -1.697 -0.296 -2.457 l 5.839 -7.439 c 0.461 -0.586 1.241 -0.818 1.948 -0.573 c 0.705 0.244 1.178 0.908 1.178 1.654 v 15.947 C 37.428 63.969 36.645 64.752 35.678 64.752 z"
          style="stroke: none; stroke-width: 1; stroke-dasharray: none; stroke-linecap: butt; stroke-linejoin: miter; stroke-miterlimit: 10; fill: rgb(255,255,255); fill-rule: nonzero; opacity: 1;" transform=" matrix(1 0 0 1 0 0) " stroke-linecap="round"/>
    <path d="M 48.482 58.265 h -4.579 c -0.966 0 -1.75 -0.783 -1.75 -1.75 v -9.43 c 0 -0.967 0.784 -1.75 1.75 -1.75 h 4.579 c 3.074 0 5.575 2.501 5.575 5.576 v 1.777 C 54.058 55.764 51.557 58.265 48.482 58.265 z M 45.653 54.765 h 2.829 c 1.145 0 2.075 -0.932 2.075 -2.076 v -1.777 c 0 -1.145 -0.931 -2.076 -2.075 -2.076 h -2.829 V 54.765 z"
          style="stroke: none; stroke-width: 1; stroke-dasharray: none; stroke-linecap: butt; stroke-linejoin: miter; stroke-miterlimit: 10; fill: rgb(255,255,255); fill-rule: nonzero; opacity: 1;" transform=" matrix(1 0 0 1 0 0) " stroke-linecap="round"/>
    <path d="M 43.903 64.722 c -0.966 0 -1.75 -0.783 -1.75 -1.75 v -6.457 c 0 -0.967 0.784 -1.75 1.75 -1.75 s 1.75 0.783 1.75 1.75 v 6.457 C 45.653 63.938 44.87 64.722 43.903 64.722 z" style="stroke: none; stroke-width: 1; stroke-dasharray: none; stroke-linecap: butt; stroke-linejoin: miter; stroke-miterlimit: 10; fill: rgb(255,255,255); fill-rule: nonzero; opacity: 1;" transform=" matrix(1 0 0 1 0 0) " stroke-linecap="round"/>
    <path d="M 66 60.75 h -8.283 c -0.577 0 -1.118 -0.285 -1.444 -0.762 s -0.396 -1.083 -0.188 -1.621 l 4.622 -11.915 c 0.351 -0.901 1.364 -1.35 2.265 -0.999 c 0.901 0.349 1.349 1.363 0.999 2.264 l -3.698 9.532 H 66 c 0.967 0 1.75 0.783 1.75 1.75 S 66.967 60.75 66 60.75 z" style="stroke: none; stroke-width: 1; stroke-dasharray: none; stroke-linecap: butt; stroke-linejoin: miter; stroke-miterlimit: 10; fill: rgb(255,255,255); fill-rule: nonzero; opacity: 1;" transform=" matrix(1 0 0 1 0 0) "
          stroke-linecap="round"/>
    <path d="M 66 64.752 c -0.967 0 -1.75 -0.783 -1.75 -1.75 v -7.974 c 0 -0.967 0.783 -1.75 1.75 -1.75 s 1.75 0.783 1.75 1.75 v 7.974 C 67.75 63.969 66.967 64.752 66 64.752 z" style="stroke: none; stroke-width: 1; stroke-dasharray: none; stroke-linecap: butt; stroke-linejoin: miter; stroke-miterlimit: 10; fill: rgb(255,255,255); fill-rule: nonzero; opacity: 1;" transform=" matrix(1 0 0 1 0 0) " stroke-linecap="round"/>
</g>
</svg>
