<svg xmlns="http://www.w3.org/2000/svg" xmlns:xlink="http://www.w3.org/1999/xlink" version="1.1" width="256" height="256" viewBox="0 0 256 256" xml:space="preserve">

<defs>
</defs>
  <g style="stroke: none; stroke-width: 0; stroke-dasharray: none; stroke-linecap: butt; stroke-linejoin: miter; stroke-miterlimit: 10; fill: none; fill-rule: nonzero; opacity: 1;" transform="translate(1.4065934065934016 1.4065934065934016) scale(2.81 2.81)">
	<path d="M 19.309 0 C 15.04 0 11.58 3.46 11.58 7.729 v 47.153 v 27.389 c 0 4.269 3.46 7.729 7.729 7.729 h 51.382 c 4.269 0 7.729 -3.46 7.729 -7.729 V 54.882 V 25.82 L 52.601 0 H 19.309 z" style="stroke: none; stroke-width: 1; stroke-dasharray: none; stroke-linecap: butt; stroke-linejoin: miter; stroke-miterlimit: 10; fill: rgb(226,38,43); fill-rule: nonzero; opacity: 1;" transform=" matrix(1 0 0 1 0 0) " stroke-linecap="round"/>
    <path d="M 78.42 25.82 H 60.159 c -4.175 0 -7.559 -3.384 -7.559 -7.559 V 0 L 78.42 25.82 z" style="stroke: none; stroke-width: 1; stroke-dasharray: none; stroke-linecap: butt; stroke-linejoin: miter; stroke-miterlimit: 10; fill: rgb(235,103,106); fill-rule: nonzero; opacity: 1;" transform=" matrix(1 0 0 1 0 0) " stroke-linecap="round"/>
    <path d="M 30.116 46.949 h -5.944 c -0.966 0 -1.75 0.783 -1.75 1.75 v 9.854 v 6.748 c 0 0.967 0.784 1.75 1.75 1.75 s 1.75 -0.783 1.75 -1.75 v -4.998 h 4.194 c 2.53 0 4.588 -2.059 4.588 -4.588 v -4.177 C 34.704 49.008 32.646 46.949 30.116 46.949 z M 31.204 55.715 c 0 0.6 -0.488 1.088 -1.088 1.088 h -4.194 v -6.354 h 4.194 c 0.6 0 1.088 0.488 1.088 1.089 V 55.715 z"
          style="stroke: none; stroke-width: 1; stroke-dasharray: none; stroke-linecap: butt; stroke-linejoin: miter; stroke-miterlimit: 10; fill: rgb(255,255,255); fill-rule: nonzero; opacity: 1;" transform=" matrix(1 0 0 1 0 0) " stroke-linecap="round"/>
    <path d="M 43.703 46.949 h -3.246 c -0.966 0 -1.75 0.783 -1.75 1.75 v 16.602 c 0 0.967 0.784 1.75 1.75 1.75 h 3.246 c 4.018 0 7.286 -3.269 7.286 -7.287 v -5.527 C 50.989 50.218 47.721 46.949 43.703 46.949 z M 47.489 59.764 c 0 2.088 -1.698 3.787 -3.786 3.787 h -1.496 V 50.449 h 1.496 c 2.088 0 3.786 1.699 3.786 3.787 V 59.764 z"
          style="stroke: none; stroke-width: 1; stroke-dasharray: none; stroke-linecap: butt; stroke-linejoin: miter; stroke-miterlimit: 10; fill: rgb(255,255,255); fill-rule: nonzero; opacity: 1;" transform=" matrix(1 0 0 1 0 0) " stroke-linecap="round"/>
    <path d="M 65.828 46.949 h -8.782 c -0.967 0 -1.75 0.783 -1.75 1.75 v 16.602 c 0 0.967 0.783 1.75 1.75 1.75 s 1.75 -0.783 1.75 -1.75 V 58.75 h 4.001 c 0.967 0 1.75 -0.783 1.75 -1.75 s -0.783 -1.75 -1.75 -1.75 h -4.001 v -4.801 h 7.032 c 0.967 0 1.75 -0.783 1.75 -1.75 S 66.795 46.949 65.828 46.949 z" style="stroke: none; stroke-width: 1; stroke-dasharray: none; stroke-linecap: butt; stroke-linejoin: miter; stroke-miterlimit: 10; fill: rgb(255,255,255); fill-rule: nonzero; opacity: 1;"
          transform=" matrix(1 0 0 1 0 0) " stroke-linecap="round"/>
</g>
</svg>
