<svg xmlns="http://www.w3.org/2000/svg" xmlns:xlink="http://www.w3.org/1999/xlink" version="1.1" width="256" height="256" viewBox="0 0 256 256" xml:space="preserve">

<defs>
</defs>
  <g style="stroke: none; stroke-width: 0; stroke-dasharray: none; stroke-linecap: butt; stroke-linejoin: miter; stroke-miterlimit: 10; fill: none; fill-rule: nonzero; opacity: 1;" transform="translate(1.4065934065934016 1.4065934065934016) scale(2.81 2.81)">
	<path d="M 19.309 0 C 15.04 0 11.58 3.46 11.58 7.729 v 47.153 v 27.389 c 0 4.269 3.46 7.729 7.729 7.729 h 51.382 c 4.269 0 7.729 -3.46 7.729 -7.729 V 54.882 V 25.82 L 52.601 0 H 19.309 z" style="stroke: none; stroke-width: 1; stroke-dasharray: none; stroke-linecap: butt; stroke-linejoin: miter; stroke-miterlimit: 10; fill: rgb(47,162,247); fill-rule: nonzero; opacity: 1;" transform=" matrix(1 0 0 1 0 0) " stroke-linecap="round"/>
    <path d="M 78.42 25.82 H 60.159 c -4.175 0 -7.559 -3.384 -7.559 -7.559 V 0 L 78.42 25.82 z" style="stroke: none; stroke-width: 1; stroke-dasharray: none; stroke-linecap: butt; stroke-linejoin: miter; stroke-miterlimit: 10; fill: rgb(95,194,255); fill-rule: nonzero; opacity: 1;" transform=" matrix(1 0 0 1 0 0) " stroke-linecap="round"/>
    <path d="M 38.914 58.62 H 32.18 c -0.966 0 -1.75 -0.783 -1.75 -1.75 V 45.006 c 0 -0.966 0.784 -1.75 1.75 -1.75 h 6.734 c 3.082 0 5.59 2.507 5.59 5.589 v 4.185 C 44.504 56.112 41.996 58.62 38.914 58.62 z M 33.93 55.12 h 4.984 c 1.152 0 2.09 -0.938 2.09 -2.09 v -4.185 c 0 -1.152 -0.938 -2.09 -2.09 -2.09 H 33.93 V 55.12 z"
          style="stroke: none; stroke-width: 1; stroke-dasharray: none; stroke-linecap: butt; stroke-linejoin: miter; stroke-miterlimit: 10; fill: rgb(255,255,255); fill-rule: nonzero; opacity: 1;" transform=" matrix(1 0 0 1 0 0) " stroke-linecap="round"/>
    <path d="M 32.18 66.744 c -0.966 0 -1.75 -0.783 -1.75 -1.75 V 56.87 c 0 -0.967 0.784 -1.75 1.75 -1.75 s 1.75 0.783 1.75 1.75 v 8.124 C 33.93 65.961 33.146 66.744 32.18 66.744 z" style="stroke: none; stroke-width: 1; stroke-dasharray: none; stroke-linecap: butt; stroke-linejoin: miter; stroke-miterlimit: 10; fill: rgb(255,255,255); fill-rule: nonzero; opacity: 1;" transform=" matrix(1 0 0 1 0 0) " stroke-linecap="round"/>
    <path d="M 54.238 66.744 h -3.999 c -0.967 0 -1.75 -0.783 -1.75 -1.75 s 0.783 -1.75 1.75 -1.75 h 3.999 c 1.01 0 1.832 -0.822 1.832 -1.833 c 0 -1.01 -0.822 -1.832 -1.832 -1.832 h -0.416 c -2.94 0 -5.333 -2.392 -5.333 -5.332 s 2.393 -5.332 5.333 -5.332 h 2.253 c 0.967 0 1.75 0.783 1.75 1.75 s -0.783 1.75 -1.75 1.75 h -2.253 c -1.011 0 -1.833 0.822 -1.833 1.832 s 0.822 1.832 1.833 1.832 h 0.416 c 2.94 0 5.332 2.392 5.332 5.332 S 57.179 66.744 54.238 66.744 z"
          style="stroke: none; stroke-width: 1; stroke-dasharray: none; stroke-linecap: butt; stroke-linejoin: miter; stroke-miterlimit: 10; fill: rgb(255,255,255); fill-rule: nonzero; opacity: 1;" transform=" matrix(1 0 0 1 0 0) " stroke-linecap="round"/>
</g>
</svg>
