<svg xmlns="http://www.w3.org/2000/svg" xmlns:xlink="http://www.w3.org/1999/xlink" version="1.1" width="256" height="256" viewBox="0 0 256 256" xml:space="preserve">

<defs>
</defs>
  <g style="stroke: none; stroke-width: 0; stroke-dasharray: none; stroke-linecap: butt; stroke-linejoin: miter; stroke-miterlimit: 10; fill: none; fill-rule: nonzero; opacity: 1;" transform="translate(1.4065934065934016 1.4065934065934016) scale(2.81 2.81)">
	<path d="M 19.309 0 C 15.04 0 11.58 3.46 11.58 7.729 v 47.153 v 27.389 c 0 4.269 3.46 7.729 7.729 7.729 h 51.382 c 4.269 0 7.729 -3.46 7.729 -7.729 V 54.882 V 25.82 L 52.601 0 H 19.309 z" style="stroke: none; stroke-width: 1; stroke-dasharray: none; stroke-linecap: butt; stroke-linejoin: miter; stroke-miterlimit: 10; fill: rgb(255,102,0); fill-rule: nonzero; opacity: 1;" transform=" matrix(1 0 0 1 0 0) " stroke-linecap="round"/>
    <path d="M 78.42 25.82 H 60.159 c -4.175 0 -7.559 -3.384 -7.559 -7.559 V 0 L 78.42 25.82 z" style="stroke: none; stroke-width: 1; stroke-dasharray: none; stroke-linecap: butt; stroke-linejoin: miter; stroke-miterlimit: 10; fill: rgb(255,148,77); fill-rule: nonzero; opacity: 1;" transform=" matrix(1 0 0 1 0 0) " stroke-linecap="round"/>
    <path d="M 28.793 58.942 H 23.85 c -0.966 0 -1.75 -0.783 -1.75 -1.75 v -9.854 c 0 -0.967 0.784 -1.75 1.75 -1.75 h 4.943 c 3.082 0 5.59 2.508 5.59 5.59 v 2.174 C 34.383 56.435 31.875 58.942 28.793 58.942 z M 25.6 55.442 h 3.193 c 1.152 0 2.09 -0.938 2.09 -2.09 v -2.174 c 0 -1.152 -0.938 -2.09 -2.09 -2.09 H 25.6 V 55.442 z"
          style="stroke: none; stroke-width: 1; stroke-dasharray: none; stroke-linecap: butt; stroke-linejoin: miter; stroke-miterlimit: 10; fill: rgb(255,255,255); fill-rule: nonzero; opacity: 1;" transform=" matrix(1 0 0 1 0 0) " stroke-linecap="round"/>
    <path d="M 23.85 65.69 c -0.966 0 -1.75 -0.783 -1.75 -1.75 v -6.748 c 0 -0.967 0.784 -1.75 1.75 -1.75 s 1.75 0.783 1.75 1.75 v 6.748 C 25.6 64.907 24.816 65.69 23.85 65.69 z" style="stroke: none; stroke-width: 1; stroke-dasharray: none; stroke-linecap: butt; stroke-linejoin: miter; stroke-miterlimit: 10; fill: rgb(255,255,255); fill-rule: nonzero; opacity: 1;" transform=" matrix(1 0 0 1 0 0) " stroke-linecap="round"/>
    <path d="M 48.674 65.722 c -0.621 0 -1.21 -0.332 -1.525 -0.893 l -6.072 -10.805 v 9.916 c 0 0.967 -0.784 1.75 -1.75 1.75 s -1.75 -0.783 -1.75 -1.75 V 47.339 c 0 -0.796 0.537 -1.491 1.307 -1.693 c 0.771 -0.202 1.58 0.142 1.969 0.835 l 6.072 10.805 v -9.947 c 0 -0.967 0.783 -1.75 1.75 -1.75 s 1.75 0.783 1.75 1.75 v 16.633 c 0 0.796 -0.537 1.491 -1.307 1.693 C 48.97 65.703 48.82 65.722 48.674 65.722 z"
          style="stroke: none; stroke-width: 1; stroke-dasharray: none; stroke-linecap: butt; stroke-linejoin: miter; stroke-miterlimit: 10; fill: rgb(255,255,255); fill-rule: nonzero; opacity: 1;" transform=" matrix(1 0 0 1 0 0) " stroke-linecap="round"/>
    <path
      d="M 62.993 65.722 h -3.218 c -2.972 0 -5.39 -2.418 -5.39 -5.39 v -9.368 c 0 -2.96 2.408 -5.378 5.368 -5.39 l 3.942 -0.017 c 0.003 0 0.006 0 0.008 0 c 0.963 0 1.746 0.778 1.75 1.742 c 0.004 0.967 -0.776 1.754 -1.742 1.758 l -3.943 0.017 c -1.039 0.004 -1.883 0.852 -1.883 1.89 v 9.368 c 0 1.042 0.848 1.89 1.89 1.89 h 3.218 c 0.776 0 1.407 -0.631 1.407 -1.407 V 57.84 c 0 -0.775 -0.631 -1.406 -1.407 -1.406 c -0.967 0 -1.75 -0.783 -1.75 -1.75 s 0.783 -1.75 1.75 -1.75 c 2.706 0 4.907 2.201 4.907 4.906 v 2.975 C 67.9 63.521 65.699 65.722 62.993 65.722 z"
      style="stroke: none; stroke-width: 1; stroke-dasharray: none; stroke-linecap: butt; stroke-linejoin: miter; stroke-miterlimit: 10; fill: rgb(255,255,255); fill-rule: nonzero; opacity: 1;" transform=" matrix(1 0 0 1 0 0) " stroke-linecap="round"/>
</g>
</svg>
