<svg xmlns="http://www.w3.org/2000/svg" xmlns:xlink="http://www.w3.org/1999/xlink" version="1.1" width="256" height="256" viewBox="0 0 256 256" xml:space="preserve">

<defs>
</defs>
  <g style="stroke: none; stroke-width: 0; stroke-dasharray: none; stroke-linecap: butt; stroke-linejoin: miter; stroke-miterlimit: 10; fill: none; fill-rule: nonzero; opacity: 1;" transform="translate(1.4065934065934016 1.4065934065934016) scale(2.81 2.81)">
	<path d="M 19.309 0 C 15.04 0 11.58 3.46 11.58 7.729 v 47.153 v 27.389 c 0 4.269 3.46 7.729 7.729 7.729 h 51.382 c 4.269 0 7.729 -3.46 7.729 -7.729 V 54.882 V 25.82 L 52.601 0 H 19.309 z" style="stroke: none; stroke-width: 1; stroke-dasharray: none; stroke-linecap: butt; stroke-linejoin: miter; stroke-miterlimit: 10; fill: rgb(203,78,48); fill-rule: nonzero; opacity: 1;" transform=" matrix(1 0 0 1 0 0) " stroke-linecap="round"/>
    <path d="M 78.42 25.82 H 60.159 c -4.175 0 -7.559 -3.384 -7.559 -7.559 V 0 L 78.42 25.82 z" style="stroke: none; stroke-width: 1; stroke-dasharray: none; stroke-linecap: butt; stroke-linejoin: miter; stroke-miterlimit: 10; fill: rgb(232,107,69); fill-rule: nonzero; opacity: 1;" transform=" matrix(1 0 0 1 0 0) " stroke-linecap="round"/>
    <path d="M 30.324 58.648 h -6.019 c -0.966 0 -1.75 -0.783 -1.75 -1.75 v -9.938 c 0 -0.966 0.784 -1.75 1.75 -1.75 h 6.019 c 2.53 0 4.588 2.059 4.588 4.589 v 4.26 C 34.912 56.59 32.854 58.648 30.324 58.648 z M 26.055 55.148 h 4.269 c 0.6 0 1.088 -0.488 1.088 -1.089 V 49.8 c 0 -0.601 -0.488 -1.089 -1.088 -1.089 h -4.269 V 55.148 z"
          style="stroke: none; stroke-width: 1; stroke-dasharray: none; stroke-linecap: butt; stroke-linejoin: miter; stroke-miterlimit: 10; fill: rgb(255,255,255); fill-rule: nonzero; opacity: 1;" transform=" matrix(1 0 0 1 0 0) " stroke-linecap="round"/>
    <path d="M 24.305 65.453 c -0.966 0 -1.75 -0.783 -1.75 -1.75 v -6.805 c 0 -0.967 0.784 -1.75 1.75 -1.75 s 1.75 0.783 1.75 1.75 v 6.805 C 26.055 64.67 25.271 65.453 24.305 65.453 z" style="stroke: none; stroke-width: 1; stroke-dasharray: none; stroke-linecap: butt; stroke-linejoin: miter; stroke-miterlimit: 10; fill: rgb(255,255,255); fill-rule: nonzero; opacity: 1;" transform=" matrix(1 0 0 1 0 0) " stroke-linecap="round"/>
    <path d="M 30.324 58.648 h -6.019 c -0.966 0 -1.75 -0.783 -1.75 -1.75 v -9.938 c 0 -0.966 0.784 -1.75 1.75 -1.75 h 6.019 c 2.53 0 4.588 2.059 4.588 4.589 v 4.26 C 34.912 56.59 32.854 58.648 30.324 58.648 z M 26.055 55.148 h 4.269 c 0.6 0 1.088 -0.488 1.088 -1.089 V 49.8 c 0 -0.601 -0.488 -1.089 -1.088 -1.089 h -4.269 V 55.148 z"
          style="stroke: none; stroke-width: 1; stroke-dasharray: none; stroke-linecap: butt; stroke-linejoin: miter; stroke-miterlimit: 10; fill: rgb(255,255,255); fill-rule: nonzero; opacity: 1;" transform=" matrix(1 0 0 1 0 0) " stroke-linecap="round"/>
    <path d="M 24.305 65.453 c -0.966 0 -1.75 -0.783 -1.75 -1.75 v -6.805 c 0 -0.967 0.784 -1.75 1.75 -1.75 s 1.75 0.783 1.75 1.75 v 6.805 C 26.055 64.67 25.271 65.453 24.305 65.453 z" style="stroke: none; stroke-width: 1; stroke-dasharray: none; stroke-linecap: butt; stroke-linejoin: miter; stroke-miterlimit: 10; fill: rgb(255,255,255); fill-rule: nonzero; opacity: 1;" transform=" matrix(1 0 0 1 0 0) " stroke-linecap="round"/>
    <path d="M 47.264 58.648 h -6.019 c -0.966 0 -1.75 -0.783 -1.75 -1.75 v -9.938 c 0 -0.966 0.784 -1.75 1.75 -1.75 h 6.019 c 2.529 0 4.588 2.059 4.588 4.589 v 4.26 C 51.852 56.59 49.793 58.648 47.264 58.648 z M 42.995 55.148 h 4.269 c 0.6 0 1.088 -0.488 1.088 -1.089 V 49.8 c 0 -0.601 -0.488 -1.089 -1.088 -1.089 h -4.269 V 55.148 z"
          style="stroke: none; stroke-width: 1; stroke-dasharray: none; stroke-linecap: butt; stroke-linejoin: miter; stroke-miterlimit: 10; fill: rgb(255,255,255); fill-rule: nonzero; opacity: 1;" transform=" matrix(1 0 0 1 0 0) " stroke-linecap="round"/>
    <path d="M 41.245 65.453 c -0.966 0 -1.75 -0.783 -1.75 -1.75 v -6.805 c 0 -0.967 0.784 -1.75 1.75 -1.75 s 1.75 0.783 1.75 1.75 v 6.805 C 42.995 64.67 42.211 65.453 41.245 65.453 z" style="stroke: none; stroke-width: 1; stroke-dasharray: none; stroke-linecap: butt; stroke-linejoin: miter; stroke-miterlimit: 10; fill: rgb(255,255,255); fill-rule: nonzero; opacity: 1;" transform=" matrix(1 0 0 1 0 0) " stroke-linecap="round"/>
    <path d="M 65.695 48.68 h -8.891 c -0.967 0 -1.75 -0.783 -1.75 -1.75 c 0 -0.966 0.783 -1.75 1.75 -1.75 h 8.891 c 0.967 0 1.75 0.784 1.75 1.75 C 67.445 47.896 66.662 48.68 65.695 48.68 z" style="stroke: none; stroke-width: 1; stroke-dasharray: none; stroke-linecap: butt; stroke-linejoin: miter; stroke-miterlimit: 10; fill: rgb(255,255,255); fill-rule: nonzero; opacity: 1;" transform=" matrix(1 0 0 1 0 0) " stroke-linecap="round"/>
    <path d="M 61.25 65.484 c -0.967 0 -1.75 -0.783 -1.75 -1.75 V 46.93 c 0 -0.966 0.783 -1.75 1.75 -1.75 S 63 45.963 63 46.93 v 16.805 C 63 64.701 62.217 65.484 61.25 65.484 z" style="stroke: none; stroke-width: 1; stroke-dasharray: none; stroke-linecap: butt; stroke-linejoin: miter; stroke-miterlimit: 10; fill: rgb(255,255,255); fill-rule: nonzero; opacity: 1;" transform=" matrix(1 0 0 1 0 0) " stroke-linecap="round"/>
</g>
</svg>
