<svg xmlns="http://www.w3.org/2000/svg" xmlns:xlink="http://www.w3.org/1999/xlink" version="1.1" width="256" height="256" viewBox="0 0 256 256" xml:space="preserve">

<defs>
</defs>
  <g style="stroke: none; stroke-width: 0; stroke-dasharray: none; stroke-linecap: butt; stroke-linejoin: miter; stroke-miterlimit: 10; fill: none; fill-rule: nonzero; opacity: 1;" transform="translate(1.4065934065934016 1.4065934065934016) scale(2.81 2.81)">
	<path d="M 19.309 0 C 15.04 0 11.58 3.46 11.58 7.729 v 47.153 v 27.389 c 0 4.269 3.46 7.729 7.729 7.729 h 51.382 c 4.269 0 7.729 -3.46 7.729 -7.729 V 54.882 V 25.82 L 52.601 0 H 19.309 z" style="stroke: none; stroke-width: 1; stroke-dasharray: none; stroke-linecap: butt; stroke-linejoin: miter; stroke-miterlimit: 10; fill: rgb(47,162,247); fill-rule: nonzero; opacity: 1;" transform=" matrix(1 0 0 1 0 0) " stroke-linecap="round"/>
    <path d="M 78.42 25.82 H 60.159 c -4.175 0 -7.559 -3.384 -7.559 -7.559 V 0 L 78.42 25.82 z" style="stroke: none; stroke-width: 1; stroke-dasharray: none; stroke-linecap: butt; stroke-linejoin: miter; stroke-miterlimit: 10; fill: rgb(95,194,255); fill-rule: nonzero; opacity: 1;" transform=" matrix(1 0 0 1 0 0) " stroke-linecap="round"/>
    <path d="M 27.814 58.374 H 22.5 c -0.966 0 -1.75 -0.783 -1.75 -1.75 v -10.27 c 0 -0.966 0.784 -1.75 1.75 -1.75 h 5.314 c 3.082 0 5.59 2.508 5.59 5.59 v 2.59 C 33.404 55.866 30.896 58.374 27.814 58.374 z M 24.25 54.874 h 3.564 c 1.152 0 2.09 -0.938 2.09 -2.09 v -2.59 c 0 -1.152 -0.938 -2.09 -2.09 -2.09 H 24.25 V 54.874 z"
          style="stroke: none; stroke-width: 1; stroke-dasharray: none; stroke-linecap: butt; stroke-linejoin: miter; stroke-miterlimit: 10; fill: rgb(255,255,255); fill-rule: nonzero; opacity: 1;" transform=" matrix(1 0 0 1 0 0) " stroke-linecap="round"/>
    <path d="M 22.5 65.407 c -0.966 0 -1.75 -0.783 -1.75 -1.75 v -7.033 c 0 -0.967 0.784 -1.75 1.75 -1.75 s 1.75 0.783 1.75 1.75 v 7.033 C 24.25 64.624 23.466 65.407 22.5 65.407 z" style="stroke: none; stroke-width: 1; stroke-dasharray: none; stroke-linecap: butt; stroke-linejoin: miter; stroke-miterlimit: 10; fill: rgb(255,255,255); fill-rule: nonzero; opacity: 1;" transform=" matrix(1 0 0 1 0 0) " stroke-linecap="round"/>
    <path
      d="M 45.025 65.479 h -5.923 c -0.966 0 -1.75 -0.783 -1.75 -1.75 s 0.784 -1.75 1.75 -1.75 h 5.923 c 0.816 0 1.48 -0.664 1.48 -1.48 v -2.19 c 0 -0.816 -0.664 -1.48 -1.48 -1.48 h -2.693 c -2.746 0 -4.98 -2.234 -4.98 -4.98 v -2.19 c 0 -2.746 2.234 -4.98 4.98 -4.98 h 3.816 c 0.967 0 1.75 0.784 1.75 1.75 c 0 0.967 -0.783 1.75 -1.75 1.75 h -3.816 c -0.816 0 -1.48 0.664 -1.48 1.48 v 2.19 c 0 0.816 0.664 1.48 1.48 1.48 h 2.693 c 2.746 0 4.98 2.234 4.98 4.98 v 2.19 C 50.006 63.244 47.771 65.479 45.025 65.479 z"
      style="stroke: none; stroke-width: 1; stroke-dasharray: none; stroke-linecap: butt; stroke-linejoin: miter; stroke-miterlimit: 10; fill: rgb(255,255,255); fill-rule: nonzero; opacity: 1;" transform=" matrix(1 0 0 1 0 0) " stroke-linecap="round"/>
    <path d="M 61.964 65.479 H 57.16 c -0.967 0 -1.75 -0.783 -1.75 -1.75 V 46.426 c 0 -0.966 0.783 -1.75 1.75 -1.75 h 4.804 c 4.018 0 7.286 3.269 7.286 7.287 v 6.229 C 69.25 62.21 65.981 65.479 61.964 65.479 z M 58.91 61.979 h 3.054 c 2.088 0 3.786 -1.698 3.786 -3.786 v -6.229 c 0 -2.088 -1.698 -3.787 -3.786 -3.787 H 58.91 V 61.979 z"
          style="stroke: none; stroke-width: 1; stroke-dasharray: none; stroke-linecap: butt; stroke-linejoin: miter; stroke-miterlimit: 10; fill: rgb(255,255,255); fill-rule: nonzero; opacity: 1;" transform=" matrix(1 0 0 1 0 0) " stroke-linecap="round"/>
</g>
</svg>
