<svg xmlns="http://www.w3.org/2000/svg" xmlns:xlink="http://www.w3.org/1999/xlink" version="1.1" width="256" height="256" viewBox="0 0 256 256" xml:space="preserve">

<defs>
</defs>
  <g style="stroke: none; stroke-width: 0; stroke-dasharray: none; stroke-linecap: butt; stroke-linejoin: miter; stroke-miterlimit: 10; fill: none; fill-rule: nonzero; opacity: 1;" transform="translate(1.4065934065934016 1.4065934065934016) scale(2.81 2.81)">
	<path d="M 19.309 0 C 15.04 0 11.58 3.46 11.58 7.729 v 47.153 v 27.389 c 0 4.269 3.46 7.729 7.729 7.729 h 51.382 c 4.269 0 7.729 -3.46 7.729 -7.729 V 54.882 V 25.82 L 52.601 0 H 19.309 z" style="stroke: none; stroke-width: 1; stroke-dasharray: none; stroke-linecap: butt; stroke-linejoin: miter; stroke-miterlimit: 10; fill: rgb(95,162,213); fill-rule: nonzero; opacity: 1;" transform=" matrix(1 0 0 1 0 0) " stroke-linecap="round"/>
    <path d="M 78.42 25.82 H 60.159 c -4.175 0 -7.559 -3.384 -7.559 -7.559 V 0 L 78.42 25.82 z" style="stroke: none; stroke-width: 1; stroke-dasharray: none; stroke-linecap: butt; stroke-linejoin: miter; stroke-miterlimit: 10; fill: rgb(119,189,232); fill-rule: nonzero; opacity: 1;" transform=" matrix(1 0 0 1 0 0) " stroke-linecap="round"/>
    <path d="M 53.062 54.511 c -0.493 0 -0.963 -0.208 -1.294 -0.572 l -7.062 -7.761 c -0.65 -0.715 -0.598 -1.822 0.117 -2.472 c 0.716 -0.651 1.823 -0.597 2.472 0.117 l 5.768 6.338 l 5.768 -6.338 c 0.648 -0.714 1.757 -0.768 2.472 -0.117 c 0.715 0.65 0.768 1.757 0.116 2.472 l -7.062 7.761 C 54.024 54.303 53.555 54.511 53.062 54.511 z"
          style="stroke: none; stroke-width: 1; stroke-dasharray: none; stroke-linecap: butt; stroke-linejoin: miter; stroke-miterlimit: 10; fill: rgb(255,255,255); fill-rule: nonzero; opacity: 1;" transform=" matrix(1 0 0 1 0 0) " stroke-linecap="round"/>
    <path d="M 53.062 64.75 c -0.967 0 -1.75 -0.783 -1.75 -1.75 V 52.761 c 0 -0.967 0.783 -1.75 1.75 -1.75 s 1.75 0.783 1.75 1.75 V 63 C 54.812 63.967 54.028 64.75 53.062 64.75 z" style="stroke: none; stroke-width: 1; stroke-dasharray: none; stroke-linecap: butt; stroke-linejoin: miter; stroke-miterlimit: 10; fill: rgb(255,255,255); fill-rule: nonzero; opacity: 1;" transform=" matrix(1 0 0 1 0 0) " stroke-linecap="round"/>
    <path d="M 36.561 57.434 h -6.684 c -0.966 0 -1.75 -0.783 -1.75 -1.75 V 45 c 0 -0.966 0.784 -1.75 1.75 -1.75 h 6.684 c 2.53 0 4.588 2.058 4.588 4.588 v 5.008 C 41.149 55.375 39.091 57.434 36.561 57.434 z M 31.627 53.934 h 4.934 c 0.6 0 1.088 -0.488 1.088 -1.088 v -5.008 c 0 -0.6 -0.488 -1.088 -1.088 -1.088 h -4.934 V 53.934 z"
          style="stroke: none; stroke-width: 1; stroke-dasharray: none; stroke-linecap: butt; stroke-linejoin: miter; stroke-miterlimit: 10; fill: rgb(255,255,255); fill-rule: nonzero; opacity: 1;" transform=" matrix(1 0 0 1 0 0) " stroke-linecap="round"/>
    <path d="M 29.877 64.75 c -0.966 0 -1.75 -0.783 -1.75 -1.75 v -7.316 c 0 -0.967 0.784 -1.75 1.75 -1.75 s 1.75 0.783 1.75 1.75 V 63 C 31.627 63.967 30.843 64.75 29.877 64.75 z" style="stroke: none; stroke-width: 1; stroke-dasharray: none; stroke-linecap: butt; stroke-linejoin: miter; stroke-miterlimit: 10; fill: rgb(255,255,255); fill-rule: nonzero; opacity: 1;" transform=" matrix(1 0 0 1 0 0) " stroke-linecap="round"/>
</g>
</svg>
