<svg xmlns="http://www.w3.org/2000/svg" xmlns:xlink="http://www.w3.org/1999/xlink" version="1.1" width="256" height="256" viewBox="0 0 256 256" xml:space="preserve">

<defs>
</defs>
  <g style="stroke: none; stroke-width: 0; stroke-dasharray: none; stroke-linecap: butt; stroke-linejoin: miter; stroke-miterlimit: 10; fill: none; fill-rule: nonzero; opacity: 1;" transform="translate(1.4065934065934016 1.4065934065934016) scale(2.81 2.81)">
	<path d="M 19.309 0 C 15.04 0 11.58 3.46 11.58 7.729 v 47.153 v 27.389 c 0 4.269 3.46 7.729 7.729 7.729 h 51.382 c 4.269 0 7.729 -3.46 7.729 -7.729 V 54.882 V 25.82 L 52.601 0 H 19.309 z" style="stroke: none; stroke-width: 1; stroke-dasharray: none; stroke-linecap: butt; stroke-linejoin: miter; stroke-miterlimit: 10; fill: rgb(117,66,237); fill-rule: nonzero; opacity: 1;" transform=" matrix(1 0 0 1 0 0) " stroke-linecap="round"/>
    <path d="M 78.42 25.82 H 60.159 c -4.175 0 -7.559 -3.384 -7.559 -7.559 V 0 L 78.42 25.82 z" style="stroke: none; stroke-width: 1; stroke-dasharray: none; stroke-linecap: butt; stroke-linejoin: miter; stroke-miterlimit: 10; fill: rgb(136,99,252); fill-rule: nonzero; opacity: 1;" transform=" matrix(1 0 0 1 0 0) " stroke-linecap="round"/>
    <path
      d="M 66.947 67 c -0.528 0 -1.039 -0.24 -1.377 -0.67 l -3.932 -5.009 l -3.934 5.01 c -0.438 0.556 -1.166 0.791 -1.848 0.604 c -0.682 -0.191 -1.181 -0.773 -1.266 -1.477 l -1.747 -14.5 c -0.116 -0.959 0.568 -1.831 1.528 -1.946 c 0.959 -0.118 1.831 0.569 1.946 1.528 l 1.242 10.306 l 2.701 -3.44 c 0.331 -0.422 0.839 -0.669 1.376 -0.669 l 0 0 c 0.537 0 1.045 0.247 1.377 0.67 l 2.699 3.439 l 1.242 -10.306 c 0.115 -0.959 0.989 -1.648 1.946 -1.528 c 0.96 0.115 1.645 0.987 1.528 1.946 l -1.747 14.5 c -0.085 0.703 -0.584 1.285 -1.266 1.477 C 67.263 66.979 67.104 67 66.947 67 z"
      style="stroke: none; stroke-width: 1; stroke-dasharray: none; stroke-linecap: butt; stroke-linejoin: miter; stroke-miterlimit: 10; fill: rgb(255,255,255); fill-rule: nonzero; opacity: 1;" transform=" matrix(1 0 0 1 0 0) " stroke-linecap="round"/>
    <path d="M 49.097 67 c -0.657 0 -1.287 -0.372 -1.585 -1.006 l -5.226 -11.128 l -5.227 11.128 c -0.411 0.875 -1.453 1.252 -2.328 0.84 c -0.875 -0.411 -1.25 -1.453 -0.84 -2.328 l 6.811 -14.5 C 40.99 49.392 41.607 49 42.286 49 l 0 0 c 0.678 0 1.295 0.392 1.584 1.006 l 6.81 14.5 c 0.411 0.875 0.035 1.917 -0.84 2.328 C 49.6 66.947 49.346 67 49.097 67 z"
          style="stroke: none; stroke-width: 1; stroke-dasharray: none; stroke-linecap: butt; stroke-linejoin: miter; stroke-miterlimit: 10; fill: rgb(255,255,255); fill-rule: nonzero; opacity: 1;" transform=" matrix(1 0 0 1 0 0) " stroke-linecap="round"/>
    <path d="M 46.932 62.392 H 37.64 c -0.966 0 -1.75 -0.783 -1.75 -1.75 s 0.784 -1.75 1.75 -1.75 h 9.292 c 0.967 0 1.75 0.783 1.75 1.75 S 47.898 62.392 46.932 62.392 z" style="stroke: none; stroke-width: 1; stroke-dasharray: none; stroke-linecap: butt; stroke-linejoin: miter; stroke-miterlimit: 10; fill: rgb(255,255,255); fill-rule: nonzero; opacity: 1;" transform=" matrix(1 0 0 1 0 0) " stroke-linecap="round"/>
    <path d="M 26.138 61.106 h -4.833 c -0.966 0 -1.75 -0.783 -1.75 -1.75 V 50.75 c 0 -0.967 0.784 -1.75 1.75 -1.75 h 4.833 c 2.53 0 4.588 2.059 4.588 4.588 v 2.931 C 30.726 59.048 28.668 61.106 26.138 61.106 z M 23.055 57.606 h 3.083 c 0.6 0 1.088 -0.488 1.088 -1.088 v -2.931 c 0 -0.6 -0.488 -1.088 -1.088 -1.088 h -3.083 V 57.606 z"
          style="stroke: none; stroke-width: 1; stroke-dasharray: none; stroke-linecap: butt; stroke-linejoin: miter; stroke-miterlimit: 10; fill: rgb(255,255,255); fill-rule: nonzero; opacity: 1;" transform=" matrix(1 0 0 1 0 0) " stroke-linecap="round"/>
    <path d="M 21.305 67 c -0.966 0 -1.75 -0.783 -1.75 -1.75 v -5.894 c 0 -0.967 0.784 -1.75 1.75 -1.75 s 1.75 0.783 1.75 1.75 v 5.894 C 23.055 66.217 22.271 67 21.305 67 z" style="stroke: none; stroke-width: 1; stroke-dasharray: none; stroke-linecap: butt; stroke-linejoin: miter; stroke-miterlimit: 10; fill: rgb(255,255,255); fill-rule: nonzero; opacity: 1;" transform=" matrix(1 0 0 1 0 0) " stroke-linecap="round"/>
    <path d="M 28.977 67 c -0.675 0 -1.318 -0.393 -1.605 -1.05 L 24.8 60.057 c -0.387 -0.886 0.018 -1.918 0.904 -2.304 c 0.885 -0.387 1.917 0.019 2.304 0.903 l 2.572 5.894 c 0.387 0.886 -0.018 1.918 -0.904 2.304 C 29.448 66.953 29.21 67 28.977 67 z" style="stroke: none; stroke-width: 1; stroke-dasharray: none; stroke-linecap: butt; stroke-linejoin: miter; stroke-miterlimit: 10; fill: rgb(255,255,255); fill-rule: nonzero; opacity: 1;" transform=" matrix(1 0 0 1 0 0) " stroke-linecap="round"/>
</g>
</svg>
