<svg xmlns="http://www.w3.org/2000/svg" xmlns:xlink="http://www.w3.org/1999/xlink" version="1.1" width="256" height="256" viewBox="0 0 256 256" xml:space="preserve">

<defs>
</defs>
  <g style="stroke: none; stroke-width: 0; stroke-dasharray: none; stroke-linecap: butt; stroke-linejoin: miter; stroke-miterlimit: 10; fill: none; fill-rule: nonzero; opacity: 1;" transform="translate(1.4065934065934016 1.4065934065934016) scale(2.81 2.81)">
	<path d="M 19.309 0 C 15.04 0 11.58 3.46 11.58 7.729 v 47.153 v 27.389 c 0 4.269 3.46 7.729 7.729 7.729 h 51.382 c 4.269 0 7.729 -3.46 7.729 -7.729 V 54.882 V 25.82 L 52.601 0 H 19.309 z" style="stroke: none; stroke-width: 1; stroke-dasharray: none; stroke-linecap: butt; stroke-linejoin: miter; stroke-miterlimit: 10; fill: rgb(199,100,148); fill-rule: nonzero; opacity: 1;" transform=" matrix(1 0 0 1 0 0) " stroke-linecap="round"/>
    <path d="M 78.42 25.82 H 60.159 c -4.175 0 -7.559 -3.384 -7.559 -7.559 V 0 L 78.42 25.82 z" style="stroke: none; stroke-width: 1; stroke-dasharray: none; stroke-linecap: butt; stroke-linejoin: miter; stroke-miterlimit: 10; fill: rgb(229,118,176); fill-rule: nonzero; opacity: 1;" transform=" matrix(1 0 0 1 0 0) " stroke-linecap="round"/>
    <path
      d="M 54.634 62.42 H 50.43 c -0.967 0 -1.75 -0.783 -1.75 -1.75 s 0.783 -1.75 1.75 -1.75 h 4.204 c 0.299 0 0.542 -0.243 0.542 -0.542 v -1.555 c 0 -0.3 -0.243 -0.543 -0.542 -0.543 h -1.911 c -2.229 0 -4.043 -1.813 -4.043 -4.042 v -1.555 c 0 -2.229 1.813 -4.043 4.043 -4.043 h 2.708 c 0.967 0 1.75 0.783 1.75 1.75 s -0.783 1.75 -1.75 1.75 h -2.708 c -0.3 0 -0.543 0.243 -0.543 0.543 v 1.555 c 0 0.299 0.243 0.542 0.543 0.542 h 1.911 c 2.229 0 4.042 1.813 4.042 4.043 v 1.555 C 58.676 60.606 56.862 62.42 54.634 62.42 z"
      style="stroke: none; stroke-width: 1; stroke-dasharray: none; stroke-linecap: butt; stroke-linejoin: miter; stroke-miterlimit: 10; fill: rgb(255,255,255); fill-rule: nonzero; opacity: 1;" transform=" matrix(1 0 0 1 0 0) " stroke-linecap="round"/>
    <path
      d="M 67.207 62.42 h -4.203 c -0.967 0 -1.75 -0.783 -1.75 -1.75 s 0.783 -1.75 1.75 -1.75 h 4.203 c 0.3 0 0.543 -0.243 0.543 -0.542 v -1.555 c 0 -0.3 -0.243 -0.543 -0.543 -0.543 h -1.91 c -2.229 0 -4.043 -1.813 -4.043 -4.042 v -1.555 c 0 -2.229 1.813 -4.043 4.043 -4.043 h 2.708 c 0.967 0 1.75 0.783 1.75 1.75 s -0.783 1.75 -1.75 1.75 h -2.708 c -0.3 0 -0.543 0.243 -0.543 0.543 v 1.555 c 0 0.299 0.243 0.542 0.543 0.542 h 1.91 c 2.229 0 4.043 1.813 4.043 4.043 v 1.555 C 71.25 60.606 69.437 62.42 67.207 62.42 z"
      style="stroke: none; stroke-width: 1; stroke-dasharray: none; stroke-linecap: butt; stroke-linejoin: miter; stroke-miterlimit: 10; fill: rgb(255,255,255); fill-rule: nonzero; opacity: 1;" transform=" matrix(1 0 0 1 0 0) " stroke-linecap="round"/>
    <path d="M 44.488 62.42 c -0.657 0 -1.287 -0.372 -1.585 -1.006 l -4.183 -8.906 l -4.183 8.906 c -0.41 0.875 -1.452 1.252 -2.328 0.84 c -0.875 -0.411 -1.25 -1.453 -0.84 -2.328 l 5.767 -12.279 c 0.289 -0.614 0.906 -1.006 1.584 -1.006 l 0 0 c 0.678 0 1.296 0.392 1.584 1.006 l 5.767 12.279 c 0.41 0.875 0.034 1.917 -0.841 2.328 C 44.99 62.367 44.737 62.42 44.488 62.42 z"
          style="stroke: none; stroke-width: 1; stroke-dasharray: none; stroke-linecap: butt; stroke-linejoin: miter; stroke-miterlimit: 10; fill: rgb(255,255,255); fill-rule: nonzero; opacity: 1;" transform=" matrix(1 0 0 1 0 0) " stroke-linecap="round"/>
    <path d="M 42.654 59.518 h -7.869 c -0.966 0 -1.75 -0.783 -1.75 -1.75 s 0.784 -1.75 1.75 -1.75 h 7.869 c 0.966 0 1.75 0.783 1.75 1.75 S 43.621 59.518 42.654 59.518 z" style="stroke: none; stroke-width: 1; stroke-dasharray: none; stroke-linecap: butt; stroke-linejoin: miter; stroke-miterlimit: 10; fill: rgb(255,255,255); fill-rule: nonzero; opacity: 1;" transform=" matrix(1 0 0 1 0 0) " stroke-linecap="round"/>
    <path
      d="M 24.704 62.42 H 20.5 c -0.966 0 -1.75 -0.783 -1.75 -1.75 s 0.784 -1.75 1.75 -1.75 h 4.204 c 0.299 0 0.542 -0.243 0.542 -0.542 v -1.555 c 0 -0.3 -0.243 -0.543 -0.542 -0.543 h -1.911 c -2.229 0 -4.042 -1.813 -4.042 -4.042 v -1.555 c 0 -2.229 1.813 -4.043 4.042 -4.043 H 25.5 c 0.966 0 1.75 0.783 1.75 1.75 s -0.784 1.75 -1.75 1.75 h -2.708 c -0.299 0 -0.542 0.243 -0.542 0.543 v 1.555 c 0 0.299 0.243 0.542 0.542 0.542 h 1.911 c 2.229 0 4.042 1.813 4.042 4.043 v 1.555 C 28.746 60.606 26.933 62.42 24.704 62.42 z"
      style="stroke: none; stroke-width: 1; stroke-dasharray: none; stroke-linecap: butt; stroke-linejoin: miter; stroke-miterlimit: 10; fill: rgb(255,255,255); fill-rule: nonzero; opacity: 1;" transform=" matrix(1 0 0 1 0 0) " stroke-linecap="round"/>
</g>
</svg>
