<svg xmlns="http://www.w3.org/2000/svg" xmlns:xlink="http://www.w3.org/1999/xlink" version="1.1" width="256" height="256" viewBox="0 0 256 256" xml:space="preserve">

<defs>
</defs>
  <g style="stroke: none; stroke-width: 0; stroke-dasharray: none; stroke-linecap: butt; stroke-linejoin: miter; stroke-miterlimit: 10; fill: none; fill-rule: nonzero; opacity: 1;" transform="translate(1.4065934065934016 1.4065934065934016) scale(2.81 2.81)">
	<path d="M 19.309 0 C 15.04 0 11.58 3.46 11.58 7.729 v 47.153 v 27.389 c 0 4.269 3.46 7.729 7.729 7.729 h 51.382 c 4.269 0 7.729 -3.46 7.729 -7.729 V 54.882 V 25.82 L 52.601 0 H 19.309 z" style="stroke: none; stroke-width: 1; stroke-dasharray: none; stroke-linecap: butt; stroke-linejoin: miter; stroke-miterlimit: 10; fill: rgb(232,75,19); fill-rule: nonzero; opacity: 1;" transform=" matrix(1 0 0 1 0 0) " stroke-linecap="round"/>
    <path d="M 78.42 25.82 H 60.159 c -4.175 0 -7.559 -3.384 -7.559 -7.559 V 0 L 78.42 25.82 z" style="stroke: none; stroke-width: 1; stroke-dasharray: none; stroke-linecap: butt; stroke-linejoin: miter; stroke-miterlimit: 10; fill: rgb(255,107,62); fill-rule: nonzero; opacity: 1;" transform=" matrix(1 0 0 1 0 0) " stroke-linecap="round"/>
    <path
      d="M 63.361 65.051 h -3.206 c -2.964 0 -5.376 -2.412 -5.376 -5.377 v -9.332 c 0 -2.953 2.402 -5.364 5.354 -5.376 l 3.928 -0.017 c 0.003 0 0.006 0 0.008 0 c 0.963 0 1.746 0.779 1.75 1.742 c 0.004 0.967 -0.776 1.754 -1.742 1.758 l -3.929 0.017 c -1.031 0.004 -1.869 0.846 -1.869 1.876 v 9.332 c 0 1.035 0.842 1.877 1.876 1.877 h 3.206 c 0.769 0 1.395 -0.626 1.395 -1.396 v -2.963 c 0 -0.77 -0.626 -1.396 -1.395 -1.396 c -0.967 0 -1.75 -0.783 -1.75 -1.75 s 0.783 -1.75 1.75 -1.75 c 2.699 0 4.895 2.196 4.895 4.896 v 2.963 C 68.256 62.854 66.061 65.051 63.361 65.051 z"
      style="stroke: none; stroke-width: 1; stroke-dasharray: none; stroke-linecap: butt; stroke-linejoin: miter; stroke-miterlimit: 10; fill: rgb(255,255,255); fill-rule: nonzero; opacity: 1;" transform=" matrix(1 0 0 1 0 0) " stroke-linecap="round"/>
    <path
      d="M 29.177 65.051 h -5.683 c -0.966 0 -1.75 -0.783 -1.75 -1.75 s 0.784 -1.75 1.75 -1.75 h 5.683 c 0.744 0 1.35 -0.605 1.35 -1.35 V 58.1 c 0 -0.744 -0.605 -1.35 -1.35 -1.35 h -2.583 c -2.674 0 -4.85 -2.176 -4.85 -4.85 v -2.102 c 0 -2.674 2.175 -4.85 4.85 -4.85 h 3.661 c 0.966 0 1.75 0.784 1.75 1.75 c 0 0.967 -0.784 1.75 -1.75 1.75 h -3.661 c -0.744 0 -1.35 0.605 -1.35 1.35 V 51.9 c 0 0.744 0.605 1.35 1.35 1.35 h 2.583 c 2.674 0 4.85 2.176 4.85 4.85 v 2.102 C 34.027 62.875 31.852 65.051 29.177 65.051 z"
      style="stroke: none; stroke-width: 1; stroke-dasharray: none; stroke-linecap: butt; stroke-linejoin: miter; stroke-miterlimit: 10; fill: rgb(255,255,255); fill-rule: nonzero; opacity: 1;" transform=" matrix(1 0 0 1 0 0) " stroke-linecap="round"/>
    <path d="M 43.389 65.051 c -0.73 0 -1.384 -0.453 -1.639 -1.138 l -6.205 -16.602 c -0.338 -0.905 0.121 -1.913 1.026 -2.251 c 0.909 -0.338 1.914 0.122 2.252 1.027 l 4.566 12.216 l 4.565 -12.216 c 0.339 -0.906 1.351 -1.365 2.252 -1.027 c 0.905 0.338 1.365 1.346 1.027 2.251 l -6.206 16.602 C 44.772 64.598 44.119 65.051 43.389 65.051 z"
          style="stroke: none; stroke-width: 1; stroke-dasharray: none; stroke-linecap: butt; stroke-linejoin: miter; stroke-miterlimit: 10; fill: rgb(255,255,255); fill-rule: nonzero; opacity: 1;" transform=" matrix(1 0 0 1 0 0) " stroke-linecap="round"/>
</g>
</svg>
