<svg xmlns="http://www.w3.org/2000/svg" xmlns:xlink="http://www.w3.org/1999/xlink" version="1.1" width="256" height="256" viewBox="0 0 256 256" xml:space="preserve">

<defs>
</defs>
  <g style="stroke: none; stroke-width: 0; stroke-dasharray: none; stroke-linecap: butt; stroke-linejoin: miter; stroke-miterlimit: 10; fill: none; fill-rule: nonzero; opacity: 1;" transform="translate(1.4065934065934016 1.4065934065934016) scale(2.81 2.81)">
	<path d="M 19.309 0 C 15.04 0 11.58 3.46 11.58 7.729 v 47.153 v 27.389 c 0 4.269 3.46 7.729 7.729 7.729 h 51.382 c 4.269 0 7.729 -3.46 7.729 -7.729 V 54.882 V 25.82 L 52.601 0 H 19.309 z" style="stroke: none; stroke-width: 1; stroke-dasharray: none; stroke-linecap: butt; stroke-linejoin: miter; stroke-miterlimit: 10; fill: rgb(0,139,245); fill-rule: nonzero; opacity: 1;" transform=" matrix(1 0 0 1 0 0) " stroke-linecap="round"/>
    <path d="M 78.42 25.82 H 60.159 c -4.175 0 -7.559 -3.384 -7.559 -7.559 V 0 L 78.42 25.82 z" style="stroke: none; stroke-width: 1; stroke-dasharray: none; stroke-linecap: butt; stroke-linejoin: miter; stroke-miterlimit: 10; fill: rgb(77,174,248); fill-rule: nonzero; opacity: 1;" transform=" matrix(1 0 0 1 0 0) " stroke-linecap="round"/>
    <path
      d="M 30.479 69.525 H 25 c -0.966 0 -1.75 -0.783 -1.75 -1.75 s 0.784 -1.75 1.75 -1.75 h 5.479 c 0.542 0 0.982 -0.44 0.982 -0.982 v -2.296 c 0 -0.541 -0.44 -0.981 -0.982 -0.981 h -2.746 c -2.472 0 -4.482 -2.011 -4.482 -4.482 v -2.296 c 0 -2.472 2.011 -4.482 4.482 -4.482 h 3.588 c 0.966 0 1.75 0.783 1.75 1.75 s -0.784 1.75 -1.75 1.75 h -3.588 c -0.542 0 -0.982 0.44 -0.982 0.982 v 2.296 c 0 0.542 0.441 0.982 0.982 0.982 h 2.746 c 2.471 0 4.482 2.011 4.482 4.481 v 2.296 C 34.96 67.515 32.95 69.525 30.479 69.525 z"
      style="stroke: none; stroke-width: 1; stroke-dasharray: none; stroke-linecap: butt; stroke-linejoin: miter; stroke-miterlimit: 10; fill: rgb(255,255,255); fill-rule: nonzero; opacity: 1;" transform=" matrix(1 0 0 1 0 0) " stroke-linecap="round"/>
    <path d="M 44.119 60.696 c -0.493 0 -0.963 -0.208 -1.294 -0.572 l -6.089 -6.691 c -0.65 -0.715 -0.598 -1.821 0.117 -2.472 c 0.714 -0.652 1.821 -0.601 2.472 0.116 l 4.794 5.269 l 4.795 -5.269 c 0.648 -0.716 1.757 -0.769 2.472 -0.116 c 0.715 0.65 0.767 1.757 0.116 2.472 l -6.088 6.691 C 45.082 60.488 44.612 60.696 44.119 60.696 z"
          style="stroke: none; stroke-width: 1; stroke-dasharray: none; stroke-linecap: butt; stroke-linejoin: miter; stroke-miterlimit: 10; fill: rgb(255,255,255); fill-rule: nonzero; opacity: 1;" transform=" matrix(1 0 0 1 0 0) " stroke-linecap="round"/>
    <path d="M 44.119 69.525 c -0.966 0 -1.75 -0.783 -1.75 -1.75 v -8.829 c 0 -0.967 0.784 -1.75 1.75 -1.75 s 1.75 0.783 1.75 1.75 v 8.829 C 45.869 68.742 45.085 69.525 44.119 69.525 z" style="stroke: none; stroke-width: 1; stroke-dasharray: none; stroke-linecap: butt; stroke-linejoin: miter; stroke-miterlimit: 10; fill: rgb(255,255,255); fill-rule: nonzero; opacity: 1;" transform=" matrix(1 0 0 1 0 0) " stroke-linecap="round"/>
    <path
      d="M 62.268 69.525 h -5.479 c -0.967 0 -1.75 -0.783 -1.75 -1.75 s 0.783 -1.75 1.75 -1.75 h 5.479 c 0.542 0 0.982 -0.44 0.982 -0.982 v -2.296 c 0 -0.541 -0.44 -0.981 -0.982 -0.981 h -2.746 c -2.472 0 -4.482 -2.011 -4.482 -4.482 v -2.296 c 0 -2.472 2.011 -4.482 4.482 -4.482 h 3.588 c 0.967 0 1.75 0.783 1.75 1.75 s -0.783 1.75 -1.75 1.75 h -3.588 c -0.542 0 -0.982 0.44 -0.982 0.982 v 2.296 c 0 0.542 0.44 0.982 0.982 0.982 h 2.746 c 2.472 0 4.482 2.011 4.482 4.481 v 2.296 C 66.75 67.515 64.739 69.525 62.268 69.525 z"
      style="stroke: none; stroke-width: 1; stroke-dasharray: none; stroke-linecap: butt; stroke-linejoin: miter; stroke-miterlimit: 10; fill: rgb(255,255,255); fill-rule: nonzero; opacity: 1;" transform=" matrix(1 0 0 1 0 0) " stroke-linecap="round"/>
</g>
</svg>
