<svg xmlns="http://www.w3.org/2000/svg" xmlns:xlink="http://www.w3.org/1999/xlink" version="1.1" width="256" height="256" viewBox="0 0 256 256" xml:space="preserve">

<defs>
</defs>
  <g style="stroke: none; stroke-width: 0; stroke-dasharray: none; stroke-linecap: butt; stroke-linejoin: miter; stroke-miterlimit: 10; fill: none; fill-rule: nonzero; opacity: 1;" transform="translate(1.4065934065934016 1.4065934065934016) scale(2.81 2.81)">
	<path d="M 19.309 0 C 15.04 0 11.58 3.46 11.58 7.729 v 47.153 v 27.389 c 0 4.269 3.46 7.729 7.729 7.729 h 51.382 c 4.269 0 7.729 -3.46 7.729 -7.729 V 54.882 V 25.82 L 52.601 0 H 19.309 z" style="stroke: none; stroke-width: 1; stroke-dasharray: none; stroke-linecap: butt; stroke-linejoin: miter; stroke-miterlimit: 10; fill: rgb(58,58,58); fill-rule: nonzero; opacity: 1;" transform=" matrix(1 0 0 1 0 0) " stroke-linecap="round"/>
    <path d="M 78.42 25.82 H 60.159 c -4.175 0 -7.559 -3.384 -7.559 -7.559 V 0 L 78.42 25.82 z" style="stroke: none; stroke-width: 1; stroke-dasharray: none; stroke-linecap: butt; stroke-linejoin: miter; stroke-miterlimit: 10; fill: rgb(99,99,99); fill-rule: nonzero; opacity: 1;" transform=" matrix(1 0 0 1 0 0) " stroke-linecap="round"/>
    <path d="M 32.887 47.881 H 22.535 c -0.966 0 -1.75 -0.783 -1.75 -1.75 c 0 -0.966 0.784 -1.75 1.75 -1.75 h 10.352 c 0.966 0 1.75 0.784 1.75 1.75 C 34.637 47.098 33.853 47.881 32.887 47.881 z" style="stroke: none; stroke-width: 1; stroke-dasharray: none; stroke-linecap: butt; stroke-linejoin: miter; stroke-miterlimit: 10; fill: rgb(255,255,255); fill-rule: nonzero; opacity: 1;" transform=" matrix(1 0 0 1 0 0) " stroke-linecap="round"/>
    <path d="M 27.711 64.681 c -0.966 0 -1.75 -0.783 -1.75 -1.75 v -16.8 c 0 -0.966 0.784 -1.75 1.75 -1.75 s 1.75 0.784 1.75 1.75 v 16.8 C 29.461 63.897 28.677 64.681 27.711 64.681 z" style="stroke: none; stroke-width: 1; stroke-dasharray: none; stroke-linecap: butt; stroke-linejoin: miter; stroke-miterlimit: 10; fill: rgb(255,255,255); fill-rule: nonzero; opacity: 1;" transform=" matrix(1 0 0 1 0 0) " stroke-linecap="round"/>
    <path d="M 58.577 64.681 c -0.967 0 -1.75 -0.783 -1.75 -1.75 v -16.8 c 0 -0.966 0.783 -1.75 1.75 -1.75 s 1.75 0.784 1.75 1.75 v 16.8 C 60.327 63.897 59.544 64.681 58.577 64.681 z" style="stroke: none; stroke-width: 1; stroke-dasharray: none; stroke-linecap: butt; stroke-linejoin: miter; stroke-miterlimit: 10; fill: rgb(255,255,255); fill-rule: nonzero; opacity: 1;" transform=" matrix(1 0 0 1 0 0) " stroke-linecap="round"/>
    <path d="M 67.465 47.881 h -8.888 c -0.967 0 -1.75 -0.783 -1.75 -1.75 c 0 -0.966 0.783 -1.75 1.75 -1.75 h 8.888 c 0.967 0 1.75 0.784 1.75 1.75 C 69.215 47.098 68.432 47.881 67.465 47.881 z" style="stroke: none; stroke-width: 1; stroke-dasharray: none; stroke-linecap: butt; stroke-linejoin: miter; stroke-miterlimit: 10; fill: rgb(255,255,255); fill-rule: nonzero; opacity: 1;" transform=" matrix(1 0 0 1 0 0) " stroke-linecap="round"/>
    <path d="M 64.398 56.28 h -5.821 c -0.967 0 -1.75 -0.783 -1.75 -1.75 s 0.783 -1.75 1.75 -1.75 h 5.821 c 0.967 0 1.75 0.783 1.75 1.75 S 65.365 56.28 64.398 56.28 z" style="stroke: none; stroke-width: 1; stroke-dasharray: none; stroke-linecap: butt; stroke-linejoin: miter; stroke-miterlimit: 10; fill: rgb(255,255,255); fill-rule: nonzero; opacity: 1;" transform=" matrix(1 0 0 1 0 0) " stroke-linecap="round"/>
    <path d="M 50.887 47.881 H 40.535 c -0.966 0 -1.75 -0.783 -1.75 -1.75 c 0 -0.966 0.784 -1.75 1.75 -1.75 h 10.352 c 0.967 0 1.75 0.784 1.75 1.75 C 52.637 47.098 51.854 47.881 50.887 47.881 z" style="stroke: none; stroke-width: 1; stroke-dasharray: none; stroke-linecap: butt; stroke-linejoin: miter; stroke-miterlimit: 10; fill: rgb(255,255,255); fill-rule: nonzero; opacity: 1;" transform=" matrix(1 0 0 1 0 0) " stroke-linecap="round"/>
    <path d="M 45.711 64.681 c -0.966 0 -1.75 -0.783 -1.75 -1.75 v -16.8 c 0 -0.966 0.784 -1.75 1.75 -1.75 c 0.967 0 1.75 0.784 1.75 1.75 v 16.8 C 47.461 63.897 46.678 64.681 45.711 64.681 z" style="stroke: none; stroke-width: 1; stroke-dasharray: none; stroke-linecap: butt; stroke-linejoin: miter; stroke-miterlimit: 10; fill: rgb(255,255,255); fill-rule: nonzero; opacity: 1;" transform=" matrix(1 0 0 1 0 0) " stroke-linecap="round"/>
</g>
</svg>
