<svg xmlns="http://www.w3.org/2000/svg" xmlns:xlink="http://www.w3.org/1999/xlink" version="1.1" width="256" height="256" viewBox="0 0 256 256" xml:space="preserve">

<defs>
</defs>
  <g style="stroke: none; stroke-width: 0; stroke-dasharray: none; stroke-linecap: butt; stroke-linejoin: miter; stroke-miterlimit: 10; fill: none; fill-rule: nonzero; opacity: 1;" transform="translate(1.4065934065934016 1.4065934065934016) scale(2.81 2.81)">
	<path d="M 19.309 0 C 15.04 0 11.58 3.46 11.58 7.729 v 47.153 v 27.389 c 0 4.269 3.46 7.729 7.729 7.729 h 51.382 c 4.269 0 7.729 -3.46 7.729 -7.729 V 54.882 V 25.82 L 52.601 0 H 19.309 z" style="stroke: none; stroke-width: 1; stroke-dasharray: none; stroke-linecap: butt; stroke-linejoin: miter; stroke-miterlimit: 10; fill: rgb(58,58,58); fill-rule: nonzero; opacity: 1;" transform=" matrix(1 0 0 1 0 0) " stroke-linecap="round"/>
    <path d="M 78.42 25.82 H 60.159 c -4.175 0 -7.559 -3.384 -7.559 -7.559 V 0 L 78.42 25.82 z" style="stroke: none; stroke-width: 1; stroke-dasharray: none; stroke-linecap: butt; stroke-linejoin: miter; stroke-miterlimit: 10; fill: rgb(99,99,99); fill-rule: nonzero; opacity: 1;" transform=" matrix(1 0 0 1 0 0) " stroke-linecap="round"/>
    <path d="M 33.511 48.378 h -8.888 c -0.966 0 -1.75 -0.783 -1.75 -1.75 c 0 -0.966 0.784 -1.75 1.75 -1.75 h 8.888 c 0.966 0 1.75 0.784 1.75 1.75 C 35.261 47.595 34.477 48.378 33.511 48.378 z" style="stroke: none; stroke-width: 1; stroke-dasharray: none; stroke-linecap: butt; stroke-linejoin: miter; stroke-miterlimit: 10; fill: rgb(255,255,255); fill-rule: nonzero; opacity: 1;" transform=" matrix(1 0 0 1 0 0) " stroke-linecap="round"/>
    <path d="M 29.067 65.179 c -0.966 0 -1.75 -0.783 -1.75 -1.75 V 46.628 c 0 -0.966 0.784 -1.75 1.75 -1.75 s 1.75 0.784 1.75 1.75 v 16.801 C 30.817 64.396 30.033 65.179 29.067 65.179 z" style="stroke: none; stroke-width: 1; stroke-dasharray: none; stroke-linecap: butt; stroke-linejoin: miter; stroke-miterlimit: 10; fill: rgb(255,255,255); fill-rule: nonzero; opacity: 1;" transform=" matrix(1 0 0 1 0 0) " stroke-linecap="round"/>
    <path d="M 40.564 65.146 c -0.276 0 -0.556 -0.065 -0.817 -0.203 c -0.854 -0.452 -1.181 -1.511 -0.729 -2.365 l 8.854 -16.736 c 0.451 -0.854 1.511 -1.182 2.365 -0.729 c 0.854 0.452 1.181 1.511 0.729 2.365 l -8.854 16.736 C 41.799 64.809 41.192 65.146 40.564 65.146 z" style="stroke: none; stroke-width: 1; stroke-dasharray: none; stroke-linecap: butt; stroke-linejoin: miter; stroke-miterlimit: 10; fill: rgb(255,255,255); fill-rule: nonzero; opacity: 1;" transform=" matrix(1 0 0 1 0 0) "
          stroke-linecap="round"/>
    <path d="M 49.422 65.146 c -0.628 0 -1.235 -0.338 -1.549 -0.932 l -8.854 -16.736 c -0.452 -0.854 -0.126 -1.913 0.729 -2.365 c 0.853 -0.454 1.913 -0.125 2.365 0.729 l 8.854 16.736 c 0.452 0.854 0.126 1.913 -0.729 2.365 C 49.978 65.081 49.697 65.146 49.422 65.146 z" style="stroke: none; stroke-width: 1; stroke-dasharray: none; stroke-linecap: butt; stroke-linejoin: miter; stroke-miterlimit: 10; fill: rgb(255,255,255); fill-rule: nonzero; opacity: 1;" transform=" matrix(1 0 0 1 0 0) "
          stroke-linecap="round"/>
    <path d="M 65.377 48.378 h -8.888 c -0.967 0 -1.75 -0.783 -1.75 -1.75 c 0 -0.966 0.783 -1.75 1.75 -1.75 h 8.888 c 0.967 0 1.75 0.784 1.75 1.75 C 67.127 47.595 66.344 48.378 65.377 48.378 z" style="stroke: none; stroke-width: 1; stroke-dasharray: none; stroke-linecap: butt; stroke-linejoin: miter; stroke-miterlimit: 10; fill: rgb(255,255,255); fill-rule: nonzero; opacity: 1;" transform=" matrix(1 0 0 1 0 0) " stroke-linecap="round"/>
    <path d="M 60.934 65.179 c -0.967 0 -1.75 -0.783 -1.75 -1.75 V 46.628 c 0 -0.966 0.783 -1.75 1.75 -1.75 s 1.75 0.784 1.75 1.75 v 16.801 C 62.684 64.396 61.9 65.179 60.934 65.179 z" style="stroke: none; stroke-width: 1; stroke-dasharray: none; stroke-linecap: butt; stroke-linejoin: miter; stroke-miterlimit: 10; fill: rgb(255,255,255); fill-rule: nonzero; opacity: 1;" transform=" matrix(1 0 0 1 0 0) " stroke-linecap="round"/>
</g>
</svg>
