<svg xmlns="http://www.w3.org/2000/svg" xmlns:xlink="http://www.w3.org/1999/xlink" version="1.1" width="256" height="256" viewBox="0 0 256 256" xml:space="preserve">

<defs>
</defs>
<g style="stroke: none; stroke-width: 0; stroke-dasharray: none; stroke-linecap: butt; stroke-linejoin: miter; stroke-miterlimit: 10; fill: none; fill-rule: nonzero; opacity: 1;" transform="translate(1.4065934065934016 1.4065934065934016) scale(2.81 2.81)" >
	<path d="M 19.309 0 C 15.04 0 11.58 3.46 11.58 7.729 v 47.153 v 27.389 c 0 4.269 3.46 7.729 7.729 7.729 h 51.382 c 4.269 0 7.729 -3.46 7.729 -7.729 V 54.882 V 25.82 L 52.601 0 H 19.309 z" style="stroke: none; stroke-width: 1; stroke-dasharray: none; stroke-linecap: butt; stroke-linejoin: miter; stroke-miterlimit: 10; fill: rgb(249,172,28); fill-rule: nonzero; opacity: 1;" transform=" matrix(1 0 0 1 0 0) " stroke-linecap="round" />
	<path d="M 78.42 25.82 H 60.159 c -4.175 0 -7.559 -3.384 -7.559 -7.559 V 0 L 78.42 25.82 z" style="stroke: none; stroke-width: 1; stroke-dasharray: none; stroke-linecap: butt; stroke-linejoin: miter; stroke-miterlimit: 10; fill: rgb(255,199,94); fill-rule: nonzero; opacity: 1;" transform=" matrix(1 0 0 1 0 0) " stroke-linecap="round" />
	<path d="M 29.166 64.003 c -0.529 0 -1.04 -0.24 -1.376 -0.669 l -3.203 -4.08 l -3.203 4.08 c -0.437 0.556 -1.166 0.794 -1.848 0.604 c -0.682 -0.191 -1.181 -0.773 -1.266 -1.477 l -1.507 -12.506 c -0.116 -0.959 0.568 -1.831 1.528 -1.946 c 0.973 -0.115 1.832 0.569 1.947 1.528 l 1.001 8.312 l 1.971 -2.511 c 0.663 -0.844 2.09 -0.844 2.753 0 l 1.971 2.511 l 1.001 -8.312 c 0.115 -0.96 0.981 -1.647 1.947 -1.528 c 0.959 0.115 1.644 0.987 1.528 1.946 l -1.507 12.506 c -0.084 0.703 -0.584 1.285 -1.266 1.477 C 29.481 63.981 29.323 64.003 29.166 64.003 z" style="stroke: none; stroke-width: 1; stroke-dasharray: none; stroke-linecap: butt; stroke-linejoin: miter; stroke-miterlimit: 10; fill: rgb(255,255,255); fill-rule: nonzero; opacity: 1;" transform=" matrix(1 0 0 1 0 0) " stroke-linecap="round" />
	<path d="M 68.662 58.92 h -3.778 c -0.967 0 -1.75 -0.783 -1.75 -1.75 v -7.423 c 0 -0.967 0.783 -1.75 1.75 -1.75 h 3.778 c 2.529 0 4.588 2.059 4.588 4.588 v 1.747 C 73.25 56.861 71.191 58.92 68.662 58.92 z M 66.634 55.42 h 2.028 c 0.6 0 1.088 -0.488 1.088 -1.088 v -1.747 c 0 -0.6 -0.488 -1.088 -1.088 -1.088 h -2.028 V 55.42 z" style="stroke: none; stroke-width: 1; stroke-dasharray: none; stroke-linecap: butt; stroke-linejoin: miter; stroke-miterlimit: 10; fill: rgb(255,255,255); fill-rule: nonzero; opacity: 1;" transform=" matrix(1 0 0 1 0 0) " stroke-linecap="round" />
	<path d="M 64.884 64.003 c -0.967 0 -1.75 -0.783 -1.75 -1.75 V 57.17 c 0 -0.967 0.783 -1.75 1.75 -1.75 s 1.75 0.783 1.75 1.75 v 5.083 C 66.634 63.22 65.851 64.003 64.884 64.003 z" style="stroke: none; stroke-width: 1; stroke-dasharray: none; stroke-linecap: butt; stroke-linejoin: miter; stroke-miterlimit: 10; fill: rgb(255,255,255); fill-rule: nonzero; opacity: 1;" transform=" matrix(1 0 0 1 0 0) " stroke-linecap="round" />
	<path d="M 44.321 64.003 h -6.617 c -0.966 0 -1.75 -0.783 -1.75 -1.75 V 49.747 c 0 -0.967 0.784 -1.75 1.75 -1.75 s 1.75 0.783 1.75 1.75 v 10.756 h 4.867 c 0.966 0 1.75 0.783 1.75 1.75 S 45.288 64.003 44.321 64.003 z" style="stroke: none; stroke-width: 1; stroke-dasharray: none; stroke-linecap: butt; stroke-linejoin: miter; stroke-miterlimit: 10; fill: rgb(255,255,255); fill-rule: nonzero; opacity: 1;" transform=" matrix(1 0 0 1 0 0) " stroke-linecap="round" />
	<path d="M 44.321 51.497 h -6.617 c -0.966 0 -1.75 -0.783 -1.75 -1.75 s 0.784 -1.75 1.75 -1.75 h 6.617 c 0.966 0 1.75 0.783 1.75 1.75 S 45.288 51.497 44.321 51.497 z" style="stroke: none; stroke-width: 1; stroke-dasharray: none; stroke-linecap: butt; stroke-linejoin: miter; stroke-miterlimit: 10; fill: rgb(255,255,255); fill-rule: nonzero; opacity: 1;" transform=" matrix(1 0 0 1 0 0) " stroke-linecap="round" />
	<path d="M 42.038 57.75 h -4.333 c -0.966 0 -1.75 -0.783 -1.75 -1.75 s 0.784 -1.75 1.75 -1.75 h 4.333 c 0.966 0 1.75 0.783 1.75 1.75 S 43.004 57.75 42.038 57.75 z" style="stroke: none; stroke-width: 1; stroke-dasharray: none; stroke-linecap: butt; stroke-linejoin: miter; stroke-miterlimit: 10; fill: rgb(255,255,255); fill-rule: nonzero; opacity: 1;" transform=" matrix(1 0 0 1 0 0) " stroke-linecap="round" />
	<path d="M 54.67 57.75 h -3.518 c -0.967 0 -1.75 -0.783 -1.75 -1.75 v -6.253 c 0 -0.967 0.783 -1.75 1.75 -1.75 h 3.518 c 2.529 0 4.588 2.059 4.588 4.588 v 0.577 C 59.258 55.691 57.199 57.75 54.67 57.75 z M 52.902 54.25 h 1.768 c 0.6 0 1.088 -0.488 1.088 -1.088 v -0.577 c 0 -0.6 -0.488 -1.088 -1.088 -1.088 h -1.768 V 54.25 z" style="stroke: none; stroke-width: 1; stroke-dasharray: none; stroke-linecap: butt; stroke-linejoin: miter; stroke-miterlimit: 10; fill: rgb(255,255,255); fill-rule: nonzero; opacity: 1;" transform=" matrix(1 0 0 1 0 0) " stroke-linecap="round" />
	<path d="M 54.67 64.003 h -3.518 c -0.967 0 -1.75 -0.783 -1.75 -1.75 V 56 c 0 -0.967 0.783 -1.75 1.75 -1.75 h 3.518 c 2.529 0 4.588 2.059 4.588 4.588 v 0.577 C 59.258 61.944 57.199 64.003 54.67 64.003 z M 52.902 60.503 h 1.768 c 0.6 0 1.088 -0.488 1.088 -1.088 v -0.577 c 0 -0.6 -0.488 -1.088 -1.088 -1.088 h -1.768 V 60.503 z" style="stroke: none; stroke-width: 1; stroke-dasharray: none; stroke-linecap: butt; stroke-linejoin: miter; stroke-miterlimit: 10; fill: rgb(255,255,255); fill-rule: nonzero; opacity: 1;" transform=" matrix(1 0 0 1 0 0) " stroke-linecap="round" />
</g>
</svg>