<svg xmlns="http://www.w3.org/2000/svg" xmlns:xlink="http://www.w3.org/1999/xlink" version="1.1" width="256" height="256" viewBox="0 0 256 256" xml:space="preserve">

<defs>
</defs>
<g style="stroke: none; stroke-width: 0; stroke-dasharray: none; stroke-linecap: butt; stroke-linejoin: miter; stroke-miterlimit: 10; fill: none; fill-rule: nonzero; opacity: 1;" transform="translate(1.4065934065934016 1.4065934065934016) scale(2.81 2.81)" >
	<path d="M 19.309 0 C 15.04 0 11.58 3.46 11.58 7.729 v 47.153 v 27.389 c 0 4.269 3.46 7.729 7.729 7.729 h 51.382 c 4.269 0 7.729 -3.46 7.729 -7.729 V 54.882 V 25.82 L 52.601 0 H 19.309 z" style="stroke: none; stroke-width: 1; stroke-dasharray: none; stroke-linecap: butt; stroke-linejoin: miter; stroke-miterlimit: 10; fill: rgb(0,121,62); fill-rule: nonzero; opacity: 1;" transform=" matrix(1 0 0 1 0 0) " stroke-linecap="round" />
	<path d="M 78.42 25.82 H 60.159 c -4.175 0 -7.559 -3.384 -7.559 -7.559 V 0 L 78.42 25.82 z" style="stroke: none; stroke-width: 1; stroke-dasharray: none; stroke-linecap: butt; stroke-linejoin: miter; stroke-miterlimit: 10; fill: rgb(76,161,119); fill-rule: nonzero; opacity: 1;" transform=" matrix(1 0 0 1 0 0) " stroke-linecap="round" />
	<path d="M 63.045 64.776 h -5.572 c -0.967 0 -1.75 -0.783 -1.75 -1.75 s 0.783 -1.75 1.75 -1.75 h 5.572 c 0.847 0 1.535 -0.689 1.535 -1.536 v -1.8 c 0 -0.847 -0.688 -1.535 -1.535 -1.535 h -2.287 c -2.776 0 -5.035 -2.259 -5.035 -5.036 v -1.8 c 0 -2.776 2.259 -5.035 5.035 -5.035 h 3.533 c 0.967 0 1.75 0.784 1.75 1.75 c 0 0.967 -0.783 1.75 -1.75 1.75 h -3.533 c -0.847 0 -1.535 0.688 -1.535 1.535 v 1.8 c 0 0.847 0.688 1.536 1.535 1.536 h 2.287 c 2.776 0 5.035 2.259 5.035 5.035 v 1.8 C 68.08 62.518 65.821 64.776 63.045 64.776 z" style="stroke: none; stroke-width: 1; stroke-dasharray: none; stroke-linecap: butt; stroke-linejoin: miter; stroke-miterlimit: 10; fill: rgb(255,255,255); fill-rule: nonzero; opacity: 1;" transform=" matrix(1 0 0 1 0 0) " stroke-linecap="round" />
	<path d="M 49.94 64.84 H 43.92 c -2.548 0 -4.621 -2.073 -4.621 -4.621 V 46.284 c 0 -0.966 0.784 -1.75 1.75 -1.75 s 1.75 0.784 1.75 1.75 v 13.935 c 0 0.618 0.503 1.121 1.121 1.121 h 6.021 c 0.967 0 1.75 0.783 1.75 1.75 S 50.907 64.84 49.94 64.84 z" style="stroke: none; stroke-width: 1; stroke-dasharray: none; stroke-linecap: butt; stroke-linejoin: miter; stroke-miterlimit: 10; fill: rgb(255,255,255); fill-rule: nonzero; opacity: 1;" transform=" matrix(1 0 0 1 0 0) " stroke-linecap="round" />
	<path d="M 23.668 64.776 c -0.276 0 -0.556 -0.065 -0.817 -0.203 c -0.854 -0.452 -1.181 -1.511 -0.729 -2.365 l 8.857 -16.742 c 0.452 -0.855 1.511 -1.182 2.365 -0.729 c 0.854 0.452 1.181 1.511 0.729 2.365 l -8.857 16.742 C 24.903 64.438 24.296 64.776 23.668 64.776 z" style="stroke: none; stroke-width: 1; stroke-dasharray: none; stroke-linecap: butt; stroke-linejoin: miter; stroke-miterlimit: 10; fill: rgb(255,255,255); fill-rule: nonzero; opacity: 1;" transform=" matrix(1 0 0 1 0 0) " stroke-linecap="round" />
	<path d="M 32.528 64.776 c -0.627 0 -1.234 -0.338 -1.548 -0.932 l -8.857 -16.742 c -0.452 -0.854 -0.126 -1.913 0.729 -2.365 c 0.853 -0.454 1.913 -0.126 2.365 0.729 l 8.857 16.742 c 0.452 0.854 0.126 1.913 -0.729 2.365 C 33.084 64.711 32.804 64.776 32.528 64.776 z" style="stroke: none; stroke-width: 1; stroke-dasharray: none; stroke-linecap: butt; stroke-linejoin: miter; stroke-miterlimit: 10; fill: rgb(255,255,255); fill-rule: nonzero; opacity: 1;" transform=" matrix(1 0 0 1 0 0) " stroke-linecap="round" />
</g>
</svg>