<svg xmlns="http://www.w3.org/2000/svg" xmlns:xlink="http://www.w3.org/1999/xlink" version="1.1" width="256" height="256" viewBox="0 0 256 256" xml:space="preserve">

<defs>
</defs>
<g style="stroke: none; stroke-width: 0; stroke-dasharray: none; stroke-linecap: butt; stroke-linejoin: miter; stroke-miterlimit: 10; fill: none; fill-rule: nonzero; opacity: 1;" transform="translate(1.4065934065934016 1.4065934065934016) scale(2.81 2.81)" >
	<path d="M 19.309 0 C 15.04 0 11.58 3.46 11.58 7.729 v 47.153 v 27.389 c 0 4.269 3.46 7.729 7.729 7.729 h 51.382 c 4.269 0 7.729 -3.46 7.729 -7.729 V 54.882 V 25.82 L 52.601 0 H 19.309 z" style="stroke: none; stroke-width: 1; stroke-dasharray: none; stroke-linecap: butt; stroke-linejoin: miter; stroke-miterlimit: 10; fill: rgb(0,121,62); fill-rule: nonzero; opacity: 1;" transform=" matrix(1 0 0 1 0 0) " stroke-linecap="round" />
	<path d="M 78.42 25.82 H 60.159 c -4.175 0 -7.559 -3.384 -7.559 -7.559 V 0 L 78.42 25.82 z" style="stroke: none; stroke-width: 1; stroke-dasharray: none; stroke-linecap: butt; stroke-linejoin: miter; stroke-miterlimit: 10; fill: rgb(76,161,119); fill-rule: nonzero; opacity: 1;" transform=" matrix(1 0 0 1 0 0) " stroke-linecap="round" />
	<path d="M 53.862 63.867 h -4.965 c -0.967 0 -1.75 -0.783 -1.75 -1.75 s 0.783 -1.75 1.75 -1.75 h 4.965 c 0.649 0 1.178 -0.528 1.178 -1.177 v -1.604 c 0 -0.649 -0.528 -1.178 -1.178 -1.178 h -2.037 c -2.579 0 -4.678 -2.099 -4.678 -4.678 v -1.604 c 0 -2.579 2.099 -4.678 4.678 -4.678 h 3.147 c 0.967 0 1.75 0.783 1.75 1.75 s -0.783 1.75 -1.75 1.75 h -3.147 c -0.649 0 -1.178 0.528 -1.178 1.178 v 1.604 c 0 0.649 0.528 1.178 1.178 1.178 h 2.037 c 2.579 0 4.678 2.099 4.678 4.678 v 1.604 C 58.54 61.77 56.441 63.867 53.862 63.867 z" style="stroke: none; stroke-width: 1; stroke-dasharray: none; stroke-linecap: butt; stroke-linejoin: miter; stroke-miterlimit: 10; fill: rgb(255,255,255); fill-rule: nonzero; opacity: 1;" transform=" matrix(1 0 0 1 0 0) " stroke-linecap="round" />
	<path d="M 42.186 63.924 h -5.364 c -2.375 0 -4.308 -1.933 -4.308 -4.308 V 47.199 c 0 -0.967 0.784 -1.75 1.75 -1.75 s 1.75 0.783 1.75 1.75 v 12.417 c 0 0.445 0.362 0.808 0.808 0.808 h 5.364 c 0.966 0 1.75 0.783 1.75 1.75 S 43.152 63.924 42.186 63.924 z" style="stroke: none; stroke-width: 1; stroke-dasharray: none; stroke-linecap: butt; stroke-linejoin: miter; stroke-miterlimit: 10; fill: rgb(255,255,255); fill-rule: nonzero; opacity: 1;" transform=" matrix(1 0 0 1 0 0) " stroke-linecap="round" />
	<path d="M 18.776 63.867 c -0.276 0 -0.556 -0.065 -0.817 -0.203 c -0.854 -0.452 -1.181 -1.511 -0.729 -2.365 l 7.892 -14.918 c 0.452 -0.854 1.51 -1.181 2.365 -0.729 c 0.854 0.452 1.181 1.511 0.729 2.365 l -7.892 14.918 C 20.01 63.529 19.403 63.867 18.776 63.867 z" style="stroke: none; stroke-width: 1; stroke-dasharray: none; stroke-linecap: butt; stroke-linejoin: miter; stroke-miterlimit: 10; fill: rgb(255,255,255); fill-rule: nonzero; opacity: 1;" transform=" matrix(1 0 0 1 0 0) " stroke-linecap="round" />
	<path d="M 26.671 63.867 c -0.627 0 -1.234 -0.338 -1.548 -0.932 L 17.23 48.018 c -0.452 -0.854 -0.126 -1.913 0.729 -2.365 c 0.853 -0.453 1.913 -0.126 2.365 0.729 l 7.892 14.918 c 0.452 0.854 0.126 1.913 -0.729 2.365 C 27.227 63.802 26.947 63.867 26.671 63.867 z" style="stroke: none; stroke-width: 1; stroke-dasharray: none; stroke-linecap: butt; stroke-linejoin: miter; stroke-miterlimit: 10; fill: rgb(255,255,255); fill-rule: nonzero; opacity: 1;" transform=" matrix(1 0 0 1 0 0) " stroke-linecap="round" />
	<path d="M 63.328 63.867 c -0.275 0 -0.556 -0.065 -0.816 -0.203 c -0.854 -0.452 -1.181 -1.511 -0.729 -2.365 l 7.893 -14.918 c 0.451 -0.853 1.511 -1.181 2.365 -0.729 s 1.181 1.511 0.729 2.365 l -7.893 14.918 C 64.563 63.529 63.956 63.867 63.328 63.867 z" style="stroke: none; stroke-width: 1; stroke-dasharray: none; stroke-linecap: butt; stroke-linejoin: miter; stroke-miterlimit: 10; fill: rgb(255,255,255); fill-rule: nonzero; opacity: 1;" transform=" matrix(1 0 0 1 0 0) " stroke-linecap="round" />
	<path d="M 71.225 63.867 c -0.628 0 -1.234 -0.338 -1.549 -0.932 l -7.893 -14.918 c -0.452 -0.854 -0.126 -1.913 0.729 -2.365 c 0.855 -0.452 1.913 -0.125 2.365 0.729 l 7.893 14.918 c 0.452 0.854 0.126 1.913 -0.729 2.365 C 71.78 63.802 71.5 63.867 71.225 63.867 z" style="stroke: none; stroke-width: 1; stroke-dasharray: none; stroke-linecap: butt; stroke-linejoin: miter; stroke-miterlimit: 10; fill: rgb(255,255,255); fill-rule: nonzero; opacity: 1;" transform=" matrix(1 0 0 1 0 0) " stroke-linecap="round" />
</g>
</svg>