<svg xmlns="http://www.w3.org/2000/svg" xmlns:xlink="http://www.w3.org/1999/xlink" version="1.1" width="256" height="256" viewBox="0 0 256 256" xml:space="preserve">

<defs>
</defs>
<g style="stroke: none; stroke-width: 0; stroke-dasharray: none; stroke-linecap: butt; stroke-linejoin: miter; stroke-miterlimit: 10; fill: none; fill-rule: nonzero; opacity: 1;" transform="translate(1.4065934065934016 1.4065934065934016) scale(2.81 2.81)" >
	<path d="M 19.309 0 C 15.04 0 11.58 3.46 11.58 7.729 v 47.153 v 27.389 c 0 4.269 3.46 7.729 7.729 7.729 h 51.382 c 4.269 0 7.729 -3.46 7.729 -7.729 V 54.882 V 25.82 L 52.601 0 H 19.309 z" style="stroke: none; stroke-width: 1; stroke-dasharray: none; stroke-linecap: butt; stroke-linejoin: miter; stroke-miterlimit: 10; fill: rgb(58,58,58); fill-rule: nonzero; opacity: 1;" transform=" matrix(1 0 0 1 0 0) " stroke-linecap="round" />
	<path d="M 78.42 25.82 H 60.159 c -4.175 0 -7.559 -3.384 -7.559 -7.559 V 0 L 78.42 25.82 z" style="stroke: none; stroke-width: 1; stroke-dasharray: none; stroke-linecap: butt; stroke-linejoin: miter; stroke-miterlimit: 10; fill: rgb(99,99,99); fill-rule: nonzero; opacity: 1;" transform=" matrix(1 0 0 1 0 0) " stroke-linecap="round" />
	<path d="M 22.999 64.324 c -0.276 0 -0.556 -0.065 -0.817 -0.203 c -0.854 -0.452 -1.181 -1.511 -0.729 -2.365 l 7.983 -15.091 c 0.451 -0.855 1.51 -1.182 2.365 -0.729 c 0.854 0.452 1.181 1.511 0.729 2.365 l -7.983 15.091 C 24.233 63.986 23.626 64.324 22.999 64.324 z" style="stroke: none; stroke-width: 1; stroke-dasharray: none; stroke-linecap: butt; stroke-linejoin: miter; stroke-miterlimit: 10; fill: rgb(255,255,255); fill-rule: nonzero; opacity: 1;" transform=" matrix(1 0 0 1 0 0) " stroke-linecap="round" />
	<path d="M 30.985 64.324 c -0.627 0 -1.234 -0.338 -1.548 -0.932 l -7.983 -15.091 c -0.452 -0.854 -0.126 -1.913 0.729 -2.365 c 0.853 -0.454 1.913 -0.126 2.365 0.729 l 7.983 15.091 c 0.452 0.854 0.126 1.913 -0.729 2.365 C 31.541 64.259 31.261 64.324 30.985 64.324 z" style="stroke: none; stroke-width: 1; stroke-dasharray: none; stroke-linecap: butt; stroke-linejoin: miter; stroke-miterlimit: 10; fill: rgb(255,255,255); fill-rule: nonzero; opacity: 1;" transform=" matrix(1 0 0 1 0 0) " stroke-linecap="round" />
	<path d="M 50.115 64.324 c -0.967 0 -1.75 -0.783 -1.75 -1.75 V 52.547 l -2.399 3.056 c -0.663 0.844 -2.09 0.844 -2.753 0 l -2.399 -3.056 v 10.027 c 0 0.967 -0.784 1.75 -1.75 1.75 s -1.75 -0.783 -1.75 -1.75 V 47.483 c 0 -0.746 0.473 -1.41 1.178 -1.654 c 0.706 -0.244 1.487 -0.013 1.948 0.573 l 4.149 5.285 l 4.148 -5.285 c 0.462 -0.586 1.244 -0.816 1.948 -0.573 c 0.706 0.244 1.179 0.908 1.179 1.654 v 15.091 C 51.865 63.541 51.082 64.324 50.115 64.324 z" style="stroke: none; stroke-width: 1; stroke-dasharray: none; stroke-linecap: butt; stroke-linejoin: miter; stroke-miterlimit: 10; fill: rgb(255,255,255); fill-rule: nonzero; opacity: 1;" transform=" matrix(1 0 0 1 0 0) " stroke-linecap="round" />
	<path d="M 67 64.324 h -5.405 c -2.387 0 -4.328 -1.941 -4.328 -4.328 V 47.483 c 0 -0.967 0.783 -1.75 1.75 -1.75 s 1.75 0.783 1.75 1.75 v 12.513 c 0 0.457 0.371 0.828 0.828 0.828 H 67 c 0.967 0 1.75 0.783 1.75 1.75 S 67.967 64.324 67 64.324 z" style="stroke: none; stroke-width: 1; stroke-dasharray: none; stroke-linecap: butt; stroke-linejoin: miter; stroke-miterlimit: 10; fill: rgb(255,255,255); fill-rule: nonzero; opacity: 1;" transform=" matrix(1 0 0 1 0 0) " stroke-linecap="round" />
</g>
</svg>