<svg xmlns="http://www.w3.org/2000/svg" xmlns:xlink="http://www.w3.org/1999/xlink" version="1.1" width="256" height="256" viewBox="0 0 256 256" xml:space="preserve">

<defs>
</defs>
<g style="stroke: none; stroke-width: 0; stroke-dasharray: none; stroke-linecap: butt; stroke-linejoin: miter; stroke-miterlimit: 10; fill: none; fill-rule: nonzero; opacity: 1;" transform="translate(1.4065934065934016 1.4065934065934016) scale(2.81 2.81)" >
	<path d="M 19.309 0 C 15.04 0 11.58 3.46 11.58 7.729 v 47.153 v 27.389 c 0 4.269 3.46 7.729 7.729 7.729 h 51.382 c 4.269 0 7.729 -3.46 7.729 -7.729 V 54.882 V 25.82 L 52.601 0 H 19.309 z" style="stroke: none; stroke-width: 1; stroke-dasharray: none; stroke-linecap: butt; stroke-linejoin: miter; stroke-miterlimit: 10; fill: rgb(249,172,28); fill-rule: nonzero; opacity: 1;" transform=" matrix(1 0 0 1 0 0) " stroke-linecap="round" />
	<path d="M 78.42 25.82 H 60.159 c -4.175 0 -7.559 -3.384 -7.559 -7.559 V 0 L 78.42 25.82 z" style="stroke: none; stroke-width: 1; stroke-dasharray: none; stroke-linecap: butt; stroke-linejoin: miter; stroke-miterlimit: 10; fill: rgb(255,199,94); fill-rule: nonzero; opacity: 1;" transform=" matrix(1 0 0 1 0 0) " stroke-linecap="round" />
	<path d="M 36.758 64.835 h -8.611 c -0.613 0 -1.182 -0.321 -1.499 -0.847 c -0.317 -0.525 -0.335 -1.178 -0.049 -1.721 l 7.255 -13.74 h -5.708 c -0.966 0 -1.75 -0.783 -1.75 -1.75 c 0 -0.966 0.784 -1.75 1.75 -1.75 h 8.611 c 0.613 0 1.182 0.321 1.499 0.847 c 0.317 0.525 0.335 1.178 0.049 1.721 l -7.255 13.74 h 5.708 c 0.966 0 1.75 0.783 1.75 1.75 S 37.725 64.835 36.758 64.835 z" style="stroke: none; stroke-width: 1; stroke-dasharray: none; stroke-linecap: butt; stroke-linejoin: miter; stroke-miterlimit: 10; fill: rgb(255,255,255); fill-rule: nonzero; opacity: 1;" transform=" matrix(1 0 0 1 0 0) " stroke-linecap="round" />
	<path d="M 58.024 58.196 h -4.782 c -0.967 0 -1.75 -0.783 -1.75 -1.75 v -9.661 c 0 -0.966 0.783 -1.75 1.75 -1.75 h 4.782 c 3.076 0 5.578 2.503 5.578 5.579 v 2.004 C 63.603 55.694 61.101 58.196 58.024 58.196 z M 54.992 54.696 h 3.032 c 1.146 0 2.078 -0.933 2.078 -2.078 v -2.004 c 0 -1.146 -0.933 -2.079 -2.078 -2.079 h -3.032 V 54.696 z" style="stroke: none; stroke-width: 1; stroke-dasharray: none; stroke-linecap: butt; stroke-linejoin: miter; stroke-miterlimit: 10; fill: rgb(255,255,255); fill-rule: nonzero; opacity: 1;" transform=" matrix(1 0 0 1 0 0) " stroke-linecap="round" />
	<path d="M 53.242 64.812 c -0.967 0 -1.75 -0.783 -1.75 -1.75 v -6.616 c 0 -0.967 0.783 -1.75 1.75 -1.75 s 1.75 0.783 1.75 1.75 v 6.616 C 54.992 64.029 54.209 64.812 53.242 64.812 z" style="stroke: none; stroke-width: 1; stroke-dasharray: none; stroke-linecap: butt; stroke-linejoin: miter; stroke-miterlimit: 10; fill: rgb(255,255,255); fill-rule: nonzero; opacity: 1;" transform=" matrix(1 0 0 1 0 0) " stroke-linecap="round" />
	<path d="M 44.543 64.82 c -0.966 0 -1.75 -0.783 -1.75 -1.75 V 46.777 c 0 -0.966 0.784 -1.75 1.75 -1.75 s 1.75 0.784 1.75 1.75 V 63.07 C 46.293 64.037 45.51 64.82 44.543 64.82 z" style="stroke: none; stroke-width: 1; stroke-dasharray: none; stroke-linecap: butt; stroke-linejoin: miter; stroke-miterlimit: 10; fill: rgb(255,255,255); fill-rule: nonzero; opacity: 1;" transform=" matrix(1 0 0 1 0 0) " stroke-linecap="round" />
</g>
</svg>