<svg fill="none" height="15" viewBox="0 0 20 15" width="20" xmlns="http://www.w3.org/2000/svg">
  <mask height="15" id="mask0" mask-type="alpha" maskUnits="userSpaceOnUse" width="20" x="0" y="0">
    <rect fill="white" height="15" width="20"/>
  </mask>
  <g mask="url(#mask0)">
    <path clip-rule="evenodd" d="M0 0V15H20V0H0Z" fill="#E31D1C" fill-rule="evenodd"/>
    <mask height="15" id="mask1" mask-type="alpha" maskUnits="userSpaceOnUse" width="20" x="0" y="0">
      <path clip-rule="evenodd" d="M0 0V15H20V0H0Z" fill="white" fill-rule="evenodd"/>
    </mask>
    <g mask="url(#mask1)">
      <path clip-rule="evenodd"
            d="M10.0159 10.0709C8.67757 9.7412 7.62937 8.621 7.64153 6.97891C7.65292 5.44178 8.58358 4.1425 10.0548 3.79077C11.526 3.43904 12.8213 4.18567 12.8213 4.18567C12.4147 3.22579 11.0021 2.55145 9.84394 2.55339C7.68818 2.557 5.39013 4.30527 5.37032 6.97891C5.34978 9.75078 7.83119 11.3294 10.0136 11.3257C11.7631 11.3228 12.593 10.1258 12.7649 9.61663C12.7649 9.61663 11.3542 10.4006 10.0159 10.0709ZM13.0646 6.45407L11.7312 6.94386L13.2357 7.47461L13.21 9.06047L14.2014 7.87072L15.8389 7.98971L14.5412 6.87424L15.3932 5.68436L14.006 6.15122L13.0145 5.04898L13.0646 6.45407Z"
            fill="#F7FCFF"
            fill-rule="evenodd"/>
    </g>
  </g>
</svg>
